<svg width="84" height="34" viewBox="0 0 84 34" fill="none" xmlns="http://www.w3.org/2000/svg">
<g clip-path="url(#clip0_5931_41639)">
<g clip-path="url(#clip1_5931_41639)">
<path fill-rule="evenodd" clip-rule="evenodd" d="M84 17.5674C84 11.757 81.1066 7.17223 75.5766 7.17223C70.0233 7.17223 66.6633 11.757 66.6633 17.522C66.6633 24.3538 70.63 27.8037 76.3233 27.8037C79.1 27.8037 81.2 27.1909 82.7866 26.3284V21.7891C81.2 22.5607 79.38 23.0374 77.07 23.0374C74.8066 23.0374 72.8 22.2657 72.5433 19.5875H83.9533C83.9533 19.2924 84 18.1121 84 17.5674ZM72.4733 15.4112C72.4733 12.8465 74.0833 11.7797 75.5533 11.7797C76.9766 11.7797 78.4933 12.8465 78.4933 15.4112H72.4733Z" fill="#635BFF"/>
<path fill-rule="evenodd" clip-rule="evenodd" d="M57.6566 7.17223C55.37 7.17223 53.9 8.21629 53.0833 8.94259L52.78 7.53538H47.6466V34L53.48 32.7971L53.5033 26.3738C54.3433 26.964 55.58 27.8037 57.6333 27.8037C61.81 27.8037 65.6133 24.5354 65.6133 17.3405C65.59 10.7583 61.74 7.17223 57.6566 7.17223ZM56.2566 22.8104C54.88 22.8104 54.0633 22.3338 53.5033 21.7437L53.48 13.3231C54.0866 12.6649 54.9266 12.2109 56.2566 12.2109C58.38 12.2109 59.85 14.526 59.85 17.4993C59.85 20.5407 58.4033 22.8104 56.2566 22.8104Z" fill="#635BFF"/>
<path fill-rule="evenodd" clip-rule="evenodd" d="M39.62 5.83311L45.4766 4.60748V0L39.62 1.20294V5.83311Z" fill="#635BFF"/>
<path d="M45.4766 7.55808H39.62V27.4179H45.4766V7.55808Z" fill="#635BFF"/>
<path fill-rule="evenodd" clip-rule="evenodd" d="M33.3433 9.23765L32.97 7.55808H27.93V27.4179H33.7633V13.9586C35.14 12.2109 37.4733 12.5287 38.1966 12.7784V7.55808C37.45 7.28571 34.72 6.78638 33.3433 9.23765Z" fill="#635BFF"/>
<path fill-rule="evenodd" clip-rule="evenodd" d="M21.6766 2.63284L15.9833 3.81308L15.96 21.9933C15.96 25.3525 18.55 27.8264 22.0033 27.8264C23.9166 27.8264 25.3166 27.486 26.0866 27.0774V22.47C25.34 22.765 21.6533 23.8091 21.6533 20.4499V12.3925H26.0866V7.55808H21.6533L21.6766 2.63284Z" fill="#635BFF"/>
<path fill-rule="evenodd" clip-rule="evenodd" d="M5.90333 13.3231C5.90333 12.4379 6.65 12.0975 7.88667 12.0975C9.66 12.0975 11.9 12.6195 13.6733 13.5501V8.2163C11.7367 7.4673 9.82333 7.17224 7.88667 7.17224C3.15 7.17224 0 9.57812 0 13.5955C0 19.8598 8.86667 18.8612 8.86667 21.5621C8.86667 22.6062 7.93333 22.9466 6.62667 22.9466C4.69 22.9466 2.21667 22.1749 0.256666 21.1309V26.5327C2.42667 27.4406 4.62 27.8264 6.62667 27.8264C11.48 27.8264 14.8167 25.4887 14.8167 21.4259C14.7933 14.6622 5.90333 15.8652 5.90333 13.3231Z" fill="#635BFF"/>
</g>
</g>
<defs>
<clipPath id="clip0_5931_41639">
<rect width="84" height="34" fill="white"/>
</clipPath>
<clipPath id="clip1_5931_41639">
<rect width="84" height="34" fill="white"/>
</clipPath>
</defs>
</svg>
