<svg id="Graphic_Elements" data-name="Graphic Elements" xmlns="http://www.w3.org/2000/svg" viewBox="0 0 1200 1200"><path d="M576.41,57.2c-1.08,4-.72,7.91.72,8.63,1.44,1.08,2.88-2.16,3.24-7.19C581.09,48.2,578.93,47.48,576.41,57.2Z"/><path d="M596.57,85.62c.72,30.59,3.23,45.34,7.19,39.59,2.52-3.6-2.16-75.21-4.68-75.21C597.29,50,596.21,66.19,596.57,85.62Z"/><path d="M573.9,112.25c0,23.75,3.59,31.31,15.83,31.31,3.6,0,5.76-1.08,4.32-2.52s-5.4-2.88-8.64-2.88c-5.4,0-6.12-3.6-5-24.47,1.08-15.83,0-24.11-2.52-24.11S573.9,98.22,573.9,112.25Z"/><path d="M608.44,167.67c-1.8,4-6.84,4.68-22.67,2.88-24.47-2.52-34.18,3.6-40.3,23.75-2.52,8.63-3.6,9.71-2.88,3.24,1.08-15.12-6.84-21.24-22.31-17.28-7.2,1.8-15.83,3.6-19.07,4s-5.4,1.8-4.32,2.88c.72,1.44-.36,4-2.52,5a7,7,0,0,0-2.16,6.83c1.08,2.52.36,6.84-1.44,9.72-2.52,4.32-3.24,4-3.24-.72,0-12.23-9-14.75-27.34-8.64-9.36,3.24-21.24,8.64-26.27,12.24-5,3.24-16.56,9.72-25.19,14.39-8.64,4.32-17.63,9.72-20.51,12.24-2.52,2.52-7.56,6.47-10.44,9.35-3.6,2.88-5.4,9-4.68,16.2.72,7.91-.72,10.79-4.31,10.07-7.92-1.8-23.39,2.88-18.72,6.12,2.88,1.8,2.88,5-1.08,12.59-2.87,5.76-5.39,12.6-5.39,15.12,0,2.88-1.44,5-3.24,5s-4.32,5.75-5.4,12.59c-2.52,13-9.36,17.63-9.36,6.12-.36-5.76-.36-5.76-4,.36-2.52,4.31-6.12,5.75-11.16,4-5-1.44-6.48-.72-5,1.79,1.44,2.16.36,5-2.52,6.12-3.59,1.08-5,6.48-4.67,15.83,0,7.56,1.44,13,3.23,11.88,5-3.24,2.52,2.52-5,10.08-5,5-6.84,10.07-5.4,15.83,1.8,6.48.36,9.71-5,12.59-4.32,2.16-9.35,8.28-11.15,13.68-4.68,11.87-5,35.62-.36,41.38a42.88,42.88,0,0,1,5.39,11.51c2.52,6.84,2.16,6.84-2.51,1.08-4.32-6.11-5-6.11-11.16.72-10.8,11.88-10.8,29.87,0,42.46,10.8,13,27.71,20.16,33.83,14,5.75-5.76,2.87,24.47-3.6,38.14-3.6,8.28-3.6,12.6,0,23.39,5.75,15.83,14,25.91,21.23,25.91,3.6,0,4.32,1.08,1.44,4.32-4.32,5.4-1.44,24.47,3.24,24.47a3.55,3.55,0,0,1,3.23,3.6c0,9.71,36,50.37,44.26,50.37,3.24,0,8.28-3.59,11.16-7.91,4-5.76,9.72-8.28,19.07-8.64,7.2,0,14-2.16,14.76-4.32.71-2.52,3.95-2.88,9.71-.72s9,1.8,10.08-1.08c.72-2.88,1.8-2.88,3.95.36,1.44,2.52-1.07,5-7.55,6.12-14.4,3.24-20.87,7.2-20.87,13,0,2.87-4.32,9-9.72,13.31-19.79,16.55-10.43,35.26,23.75,48.58,11.88,4.32,22.31,10.43,23,13.31,1.44,4.32.72,4.68-3.24.72-5.76-5.4-15.47-5.76-12.23-.72,1.44,2.16.36,6.12-1.8,9-3.24,4-2.88,7.91,1.8,17.63,5.4,11.52,6.83,12.24,16.91,9,6.12-1.44,12.23-2.16,13.67-1.44,1.8,1.08,2.16-1.44,1.08-5.4-1.44-5.76-3.23-6.48-6.83-3.24-2.52,2.16-8.28,3.24-13,2.52-11.51-1.44-11.87-18.71,0-20.15,5.4-.72,7.92.72,7.92,5,0,4.67-1.08,5-5.4,1.44s-5.4-3.6-5.4,1.08c0,8.63,7.2,11.15,13.32,5,5-4.67,5-7.19,1.08-16.91-4.68-11.15-10.44-14.75-38.87-25.55-16.55-6.12-24.46-18.71-19.43-30.22,6.84-14.76,17.64-11.16,15.48,5-.72,2.52.72,3.6,2.87,2.16,2.16-1.08,4-.36,4,1.8s4,2.88,10.08,1.8c32-6.84,34.54-6.84,32-.72-1.07,3.24-.36,6.48,2.16,7.56,2.52.72-5.39,1.8-17.63,1.8-12.23.36-23.39-1.44-25.91-4s-4.32-3.24-4.32-1.8-2.15.72-5-1.8c-3.6-3.24-4-6.12-1.44-9.36,2.52-2.87,2.52-4.31-.36-4.31-8.28,0-9,11.87-1.08,18,16.19,13.31,66.21,11.51,71.61-2.16,2.52-6.84-4.32-14.75-7.56-9-1.44,2.16-.72,4,1.08,4a4,4,0,0,1,4,4c0,2.16-2.16,3.24-4.32,2.16-2.52-.72-4.68-4.32-4.68-7.56,0-4.32,5.76-8.27,18.71-13l18.36-6.48-5.4,12.59c-5,12.24-4.68,15.84,4.32,37.79,3.59,9-1.8,7.91-14.4-2.88-10.07-8.64-10.43-9-2.16-7.2,6.12,1.08,7.56.72,4.68-2.16-2.16-2.16-2.88-8.27-1.8-13.67,1.08-5.76,0-11.16-2.52-12.59-3.24-1.8-3.6-.36-1.8,5,2.52,8.64-2.87,17.64-14,21.59-5.76,2.52-5,3.6,7.2,10.08,18.71,9.36,25.91,22.31,20.15,34.9-7.56,17.28-31.67,9.36-28.79-9.35,1.44-10.08,16.19-13.68,19.43-4.68,3.24,8.28-4.32,15.47-10.07,9.72-3.24-3.24-3.24-4.32,0-4.32,2.52,0,4.31-1.8,4.31-3.6,0-5.4-6.11-4.32-8.63,1.8-1.08,2.88.72,7.91,4,10.79,5,5.4,6.47,5.4,11.15.72,6.84-7.19,3.24-20.87-6.83-27-7.92-5-39.23-15.48-39.23-13,0,.36,4,5,9,10.08,5.4,5.39,9,13,9,19.43,0,5.76,3.24,13.31,6.84,16.55,5.76,5.4,6.48,7.92,2.88,13-2.16,3.59-5.4,5.75-7.2,4.67s-1.08,1.8,1.8,6.12c4,6.48,4,8.28,0,9.72-3.24,1.44-3.6,2.87-.72,6.47,2.16,2.52,3.6,6.12,2.88,7.56-.36,1.8,1.44,7.2,4.32,12.23,3.24,5.76,4.68,17.28,4,33.47-.72,15.11.36,24.11,2.88,24.11,2.16,0,2.88,2.88,1.44,6.48-1.8,5-1.08,5,3.23-.72,5.4-6.84,5.76-6.84,7.92.36,1.44,4.31,5.4,8.63,8.64,9.35s2.52,1.08-1.8.72c-10.8-1.08-18.71,8.28-20.51,23.75-1.44,13.68,7.19,32,15.47,32,4,0,3.24,1.8-2.16,7.19a39.36,39.36,0,0,0-10.07,14c-2.52,8.28,7.55,25.55,14.75,25.55,4.68,0,4.68,1.44,0,9.71-4.32,8.64-4.32,11.88.36,23.39,5.4,13.32,12.59,17.64,31.67,18.36,10.07.35,10.79,1.43,10.79,14,.36,16.91,11.52,29.15,33.83,37.42,27.7,9.72,45,10.08,71.6.72,13.32-4.32,26.27-8.27,28.43-8.27,2.52,0,4.32-1.44,4.32-3.24-.36-1.44,4-7.2,9-12.6s11.15-16.91,14-25.55c5.76-20.15,2.88-45.34-4.68-43.9-2.88.72-4,0-2.52-1.8,1.8-1.44,4.32-2.87,5.4-2.87,3.6-.36,26.63-15.12,35.27-22.32,4-3.59,8.27-11.87,9.71-18.35,1.8-9.35.72-12.95-6.84-19.79l-9-8.27,9.35-7.2c5-3.6,9-9.72,9-13,0-3.59,2.16-6.47,4.68-6.47,3.24,0,3.24-.72-.36-3.24-2.52-1.44-5-6.12-5.4-10.44,0-4-1.44-7.19-2.52-6.83-1.08,0-5.4-1.08-10.07-2.52-5.76-1.8-11.88-.36-21.59,5.39-40,24.11-73.41,38.15-67.3,28.07,1.44-2.16-.35-5.76-3.95-8.63-6.48-4.68-6.12-5,3.24-7.2,5.39-1.44,9.71-4,9.71-5.4s2.88-2.52,6.12-2.16c4.32,0,6.84-2.52,7.56-7.91l1.07-7.92,6.84,7.92c5,6.47,7.56,7.19,11.52,4,2.52-2.51,9-4.67,13.67-5.39,5-.72,11.16-2.52,13.67-4,2.16-1.8,4.32-1.8,4.32-.36s3.24-.36,7.2-4,7.2-8.64,7.2-11.51c0-2.52,2.88-4.68,6.47-4.68s8.28-1.8,10.44-4c4.32-4.32,2.52-30.23-2.88-41-2.52-5.4-2.16-10.44,1.8-18,6.48-12.59,7.92-25.9,1.8-15.11-3.6,6.12-4.32,6.12-16.19-1.08-6.84-4.32-12.24-6.12-12.24-4,0,1.8,2.88,4.32,6.48,5.76,4,1.08,8.63,5.76,10.79,10.44,3.24,7.19,2.52,9.71-2.52,14.39-8.27,7.56-19.79,7.2-25.9,0-4-5-3.6-6.48,2.16-10.8,3.59-2.87,5-5,2.87-5-2.52,0-6.47-2.52-9.71-5.4a10.85,10.85,0,0,0-11.52-2.88c-5.39,2.16-5.39,2.52,1.44,5,11.88,4.68,11.16,23.75-1.08,27-5,1.44-10.43,1.44-11.51,0-1.44-1.08.36-2.16,3.24-2.16,3.24,0,7.91-2.52,10.43-5.76,4.32-5,3.6-6.84-5.4-14-5.75-4.68-9-10.08-7.91-12.24,1.44-2.16,4.32-3.24,6.12-2.16,1.79,1.44,3.23.36,3.23-1.44,0-5.75-9.35-4.67-14.39,1.44-3.6,4.32-2.52,6.84,5,13.68,10.07,9.71,12.59,19.07,4,15.47-2.88-1.08-5.4-.72-5.4.72s-3.6,7.2-8.28,12.59l-7.91,10.44-9.72-7.56c-9.36-7.55-9.72-7.55-11.88-.36-3.23,10.08-11.51,9-18-2.88-4-6.47-5-7.19-3.6-2.15,1.08,4-.36,10.43-3.23,14.39-5,6.48-5.4,6.48-7.92-4-2.16-9.36-2.88-9.72-5.4-3.6-6.12,15.84-2.16,18.71,15.83,10.8,3.24-1.44,8.64-1.8,11.52-.36,2.88,1.08,7.56-.36,10.44-3.6,3.23-3.24,6.11-3.6,7.55-1.44,3.6,5.76,19.79,4.32,22.31-2.16,1.44-3.6,4.68-4.68,11.52-3.24,7.19,1.44,11.51,0,16.55-5.4s7.56-6.11,11.15-3.23c7.56,6.11-.35,18.71-9.71,15.83-4.68-1.44-10.08,0-14.39,4S675,886.27,663.5,887c-9.72.36-20.15,2.88-23,5-3.24,2.88-10.08,3.6-18,2.16-10.79-2.16-13-1.44-15.47,5.4-2.52,6.12-3.6,6.84-5,2.88-1.8-4.32-8.27-5-28.06-4.68-20.16.72-29.15-.72-38.51-6.12-8.63-5-14-6.12-16.91-3.6-5.76,5-13.67-7.19-9-14.39,2.88-4.32,4.32-4,8.28,1.44,2.88,3.6,5.76,6.48,6.48,6.12.36-.36,4,.72,7.91,2.16s7.56.72,9.72-2.52c2.16-4,4.32-3.24,10.44,3.24,7.55,7.91,18,10.79,18,5,0-1.8,4-5,9-7.19s9-2.88,9-1.08,2.52,4.31,5.4,5.39c5,1.8,5,1.44,0-5.75-6.12-9.36-7.56-47.86-1.8-51.46,2.16-1.44,6.12-.36,9,1.8,4,3.24,5.4,3.24,5.4.36,0-6.84,10.08-4.32,15.83,4l5.76,7.91v-9.71c0-6.12-1.8-9.72-5.4-9.72-2.87,0-5.39-2.16-5.39-4.68,0-3.23-9.36-4.31-33.47-4.67-34.54,0-52.9-2.88-52.9-8.28,0-1.8,7.2-4.32,16.2-5.4l16.19-2.52-9.72-8.27-9.71-8.28h62.25l4.32,13c5,15.48,10.08,22.67,14.39,19.8,1.8-1.08,3.24.72,3.24,3.59,0,3.6,2.16,4.68,5.4,3.6,3.6-1.44,5.4,0,5.4,4,0,3.6-1.8,4.68-4.32,3.24-2.88-1.8-3.24.72-1.8,8.28,1.08,6.11.72,12.23-1.44,14.39-1.8,1.8-2.52,6.12-1.08,9.36,4.32,11.51,8.64,6.11,8.64-11.16,0-17.63.36-18.35,20.87-37.06,8.27-7.92,23.75-15.84,20.87-10.8-1.44,2.16-1.08,4,1.08,4,1.8,0,4.68-1.8,5.76-3.6,1.08-2.16,5.39-3.6,9-3.6s7.2-1.08,8.28-2.88c.72-1.44,1.08-.72.36,1.44-.36,2.52,5,3.24,15.83,2.52,15.11-1.44,18.35-.36,28.79,9.72,6.12,6.12,11.51,9.71,11.51,7.55,0-1.79,4.32-4.67,10.08-6.83,7.92-2.52,10.08-5.76,10.79-15.12,1.08-14,6.48-25.18,12.6-25.18,5.76,0,43.9-37.79,53.26-53.26,4.31-6.12,5.75-11.52,3.59-11.52s-4,1.44-4,3.24c0,5-41.75,48.58-53.62,55.42-11.16,6.48-11.16,6.48-14.39-1.8-1.8-4.68-6.12-15.11-9.36-23.75-3.6-8.64-5.76-15.83-5-16.55,3.24-2.88,51.82-23,52.9-22,.72.72-.72,4.67-2.88,9-6.12,11.52-2.16,12.6,14.75,3.24,9.72-5.4,16.2-11.87,17.64-17.63,1.8-7.56,4-9,13-7.92,8.64.72,11.88-.72,14.75-7.19,1.8-4.68,2.88-11.52,2.52-15.48-5.39-31.3-5.75-34.9-2.16-32.74a4.59,4.59,0,0,0,6.12-1.44c1.44-2.16,4-2.88,5.76-1.44,5.4,3.24,17.63-9.36,17.63-18.35,0-10.44-7.56-16.56-17.27-13.68-5,1.08-7.92.36-7.92-2.52,0-2.16-2.88-3.24-6.48-2.16-5.39,1.8-8.63-4.31-20.51-41-7.55-23.75-12.95-43.9-11.87-45.34,5-5,31.67-5.76,37.42-1.08,10.08,8.28,13,21.23,6.84,30.59-5.4,8.27-4.68,9,14.75,23.75l20.15,15.11-7.91,6.48c-7.56,6.12-9,6.12-14.4,1.08-8.63-7.92-13-6.48-5.39,1.8,3.59,4,8.63,7.19,11.15,7.19,6.48,0,19.43-11.15,19.43-16.91,0-2.16,2.16-5.76,5-7.2,8.28-4.67,12.6-27.7,8.64-44.26-3.24-12.23-2.88-15.83,2.52-21.59,3.59-3.95,6.83-11.51,6.83-16.91.72-11.51-11.51-27.35-17.63-23.39-2.16,1.44-.36-.72,4.32-4.68,17.27-15.47,4-31.3-18-21.59-8.64,3.6-14.76-2.52-11.52-12.23,2.52-7.92,10.44-10.08,14.4-4a8.36,8.36,0,0,0,6.11,3.6c2.52,0,2.52-1.44-.36-5-3.24-3.6-2.88-5.76,1.44-9.36,2.88-2.51,5.4-6.47,5.4-8.63s-2.52-1.08-5,2.16c-2.52,3.6-8.27,6.47-12.23,6.47-4.32,0-9.36,2.88-11.16,6.12-3.6,6.12-3.6,6.12-4,0,0-3.24,1.8-6.12,3.6-6.12,2.16,0,3.6-2.87,3.6-6.47,0-10.44,7.2-15.48,15.83-10.8,6.84,3.6,7.2,3.6,2.88-1.8-2.88-3.24-4.32-7.91-3.24-10.43,2.88-7.92-4.67-17.28-13.67-17.28-7.56,0-9-1.79-9.36-11.87,0-6.12-1.8-14.75-3.59-18.71-2.52-5.76-2.88-5-1.44,3.6.72,5.75,2.52,18.71,3.59,28.78,1.08,9.72,4.32,20.16,6.48,23,3.24,4.32,3.24,4.68-.36,2.52-2.52-1.44-4.32-1.44-3.6.36.36,1.44-.72,9.72-2.16,18.35-1.43,8.28-3.23,19.08-3.59,24.11-1.08,9.36-4.68,14.76-19.8,31.31-9.35,10.44-8.63,18,.72,8.28,7.2-6.84,9.72-6.84,15.12.72,3.6,4.67,3.24,7.19-1.08,12.23-3.24,3.6-6.84,5.76-8.64,4.68-1.44-1.08-2.88,0-2.88,1.8a3.94,3.94,0,0,0,3.6,4,3.32,3.32,0,0,1,3.6,3.24c0,1.79-7.2,2.15-15.83,1.43-20.87-2.51-30.95,3.24-30.95,17.64,0,12.59-2.88,11.87-5.4-1.08-1.08-4.68-3.24-9-5.39-9.72s-5.4-4.32-7.56-8.27C815,489.37,816.07,489,830.1,489c24.11.36,39.23-3.6,34.19-8.64-3.24-3.6-6.12-3.24-14.4.72-6.47,3.24-16.19,4.68-25.54,3.6-12.24-1.44-16.2-.36-19.8,4.68-5.39,9-13.67,8.63-18.71-.72-4.32-8.28,1.08-18.35,5.4-10.8a9.88,9.88,0,0,0,7.56,4c2.88,0,.36-4.68-6.12-10.79-14-14-22.31-13.68-28.07.72-2.88,6.47-6.47,14-8.63,16.55-1.8,2.88-3.6,13.31-4,23.39-.36,10.43-1.8,21.95-2.88,25.91-1.8,5.75,0,9,8.28,13.67,14.75,9,14,16.19-1.44,15.83-14.76-.36-23.39,7.56-27.35,24.83-2.16,9.72-1.44,13,3.24,15.84s5,4,1.08,6.83c-3.6,2.16-1.08,3.6,8.63,5.4,10.08,2.16,12.24,3.6,8.28,6.12-6.48,4-.36,4,9.35-.36,5-2.16,5.4-3.24,1.8-3.6-4.31,0-3.59-1.44,1.8-6.12,7.2-5.75,5.76-5.4-10.43,1.08-5.76,2.16-20.15-14.39-20.15-23.39,0-8.63,9.35-20.87,18-23,4.68-1.08,11.15,1.08,17.27,6.12,5.4,4.68,11.88,7.56,14.39,6.84,2.16-1.08,4.32,0,4.32,2.16s-2.16,4-5,4-6.12,6.12-7.56,15.12c-1.8,8.63-3.24,16.19-3.24,17.27-1.44,6.84-8.28,10.8-24.47,14.39-10.44,2.52-22.31,7.56-26.63,11.52-4.32,3.6-10.07,5.76-13.31,4.32-5.4-1.8-5-2.88.72-9,10.07-11.15,15.83-23.75,13.31-30.23-2.16-5.75-12.23-5.75-37.42.72-8.28,1.8-8.28,1.44-4.32-6.11,2.52-4.68,3.6-13.68,2.52-20.51-3.6-20.16,4.68-31.31,10.43-14.76a38.09,38.09,0,0,1,2.52,10.08c-.72,2.88,18.36,1.8,23.39-1.08,2.16-1.8,4.32-6.12,4.32-10.08,0-4.32,2.52-6.83,6.84-6.83,9,0,13.67-7.2,7.19-11.16-4-2.16-3.23-4.32,2.16-10.44,6.12-6.83,6.48-7.91.72-13.31-4.67-5-6.11-5-6.11-1.08s-1.08,4-4.32.72c-3.6-3.6-3.6-5.4.72-7.92,3.6-2.51,4-3.59,1.08-3.59a4.85,4.85,0,0,1-4.68-5c0-8.28-6.84-10.44-12.95-4.32-2.88,3.24-9.36,5.76-14,5.76s-9.71,1.44-10.79,3.6c-1.08,1.79-4,3.59-5.76,3.59-2.16,0-2.52-1.44-1.44-3.59s-.36-2.52-3.6-1.44q-5.4,2.16-2.16,6.47c4,4.68,3.6,23.75-.36,23.75-1.8,0-2.88-1.8-2.88-3.6,0-2.15-2.16-3.59-5-3.59-2.52,0-6.84-2.16-9.36-5-2.16-2.88-6.84-4.32-9.72-3.24-4.31,1.8-5,1.08-2.88-2.52,4.68-7.92-18.71,10.08-26.62,20.15-6.12,7.92-7.56,8.28-10.44,2.88-2.16-4-5.76-5-11.15-3.24-7.92,2.52-9.72,7.2-4,10.8,1.8,1.08,2.52,4.32,1.44,7.19-1.44,4-4.32,2.52-11.16-5.39-5-6.12-11.87-10.8-15.11-10.8-9,0-29.15,10.44-29.15,15.11,0,2.16-3.6,2.88-8.63,1.44-6.48-1.44-10.08-.36-12.6,4-2.16,3.6-4,4.32-4,1.8,0-5.4-20.15-5.76-23.39-.36-1.44,2.16-4.68,2.88-7.55,1.8-4-1.44-4.32-.36-1.8,4.32,3.95,7.56,18.35,60.09,18.35,67.29,0,13-6.12,5.4-26.63-31.67-10.8-20.15-11.15-11.15-.36,18,10.8,30.22,10.8,29.86,2.52,29.86-5,0-9-8.27-18.35-36.34-8.28-24.83-10.8-37.43-8.28-39.94,6.48-6.48,14.39-.36,26.63,20.87,6.12,11.51,11.87,19.07,12.59,17.27,2.16-6.48-12.95-46.42-16.91-45.34a12.77,12.77,0,0,1-9-2.88c-3.24-2.52-7.2-1.44-14.76,4.32-5.4,4.68-12.59,7.92-15.83,7.2-14-2.16-16.55,6.83-18,66.93,0,5-1.44,7.55-4,6.11-2.16-1.44-2.88-4.67-1.8-7.55s.72-5-1.08-5-4.32-5.76-5.76-13a97.23,97.23,0,0,0-6.12-21.59c-5-10.79-17.27-15.11-21.59-7.19-4,6.83-12.23,7.55-14.75,1.08q-2.16-5.4-2.16,0c-.36,2.52-1.44,4.67-2.88,4.67-1.8,0-2.88-8.27-2.88-18,0-16.91,2.52-22,6.84-14.75,2.88,4.32,23,8.64,36.35,7.56,21.23-1.08,48.57-28.43,48.57-47.86,0-7.2,9.72-10.8,13.32-4.68,10.43,17.63,57.21,21.23,81.32,6.12,10.08-6.12,14.4-6.84,22.31-4s11.52,2.16,19.79-3.6c5.4-4,15.12-7.2,21.59-7.2s10.44-1.44,9-3.6c-1.08-2.16-.72-3.59,1.44-3.59,1.8,0,4.68-3.24,5.76-7.2,1.44-4,4-6.12,6.11-5,2.52,1.8,3.24.36,1.8-3.24-1.08-3.24,0-6.47,3.24-7.55,2.88-1.08,5-.72,5,.72s3.6,6.83,8.28,12.23C650.18,520,665.66,517.8,674.29,503c3.24-5.76,7.56-10.43,9.36-10.43,5.4,0,16.19,13.31,13.31,16.55-1.44,1.44,2.52-.36,8.28-4A76.85,76.85,0,0,0,720.71,493c3.24-4,5.4-4.32,7.2-1.8,3.24,5,18.71,13.31,18.71,10.07,0-1.08-4-5.39-8.64-9-5-4-10.07-10.08-11.15-14-1.44-4-4-7.19-5.76-7.19-2.16,0-2.52,1.8-1.44,4,4,6.48-1.44,20.52-9,23-9,2.88-16.56-1.44-24.83-13.67l-6.48-9.72-4,14c-9,29.51-25.91,29.87-40.66.36-6.48-12.24-10.08-16.91-10.44-12.6-.72,21.23-24.11,51.1-33.1,42.11-2.16-2.16-6.48-.36-11.88,5-10.07,9.72-20.51,11.16-27,3.24-4-4.68-5.76-4.32-13.68,3.6-5.4,5.4-13,9-19.07,9a58.44,58.44,0,0,0-19.07,4c-11.88,5.4-25.91,1.44-38.51-11.15-11.51-11.52-24.82-11.16-24.82.72,0,18-20.88,41.38-41.39,46.06-29.14,6.48-64-16.91-68.73-46.42-2.52-16.19-10.07-18.35-11.15-3.6a168.83,168.83,0,0,1-2.88,18c-2.16,8.28-1.08,9.72,8.64,11.52,12.59,2.52,25.54,20.15,25.54,34.9,0,24.11-24.82,33.83-39.58,15.48-6.48-8.28-7.55-13-5.76-26.27,1.44-9,2.52-20.51,3.24-25.91.36-5,1.8-10.8,3.6-12.24,1.44-1.44,2.52-6.11,2.52-10.07,0-6.84-1.8-7.56-14-6.48-19.79,1.8-33.83-11.51-32-30.59,1.44-17.27,10.08-20.51,10.08-3.95,0,14.75,5.39,20.87,18,20.87,11.15,0,19.79-8.64,36-35.63,17.27-28.07,40.3-36.7,56.86-21.23,5.76,5.76,8.27,6.48,7.19,2.88-1.79-9.36-20.51-18.71-32.38-16.19-10.8,2.52-33.11,22-42.82,37.78l-5.76,8.64-4.68-8.64c-4-7.56-3.6-9.35,6.84-17.63,6.12-5,11.15-11.52,11.15-13.68,0-9,27.71-23.38,45.7-23.74,15.48,0,61.54,12.23,71.25,19.07,16.56,11.87,91.4,20.51,117,13.67,16.91-4.68,39.58-28.07,39.94-41.38.72-16.91-.36-20.51-8.63-28.43a75.34,75.34,0,0,1-13.32-18c-8.63-16.55-28.42-15.47-28.78,1.44,0,2.88,3.24,4.32,8.27,3.6,4.68-.72,7.92.72,7.56,3.24a104.66,104.66,0,0,0-.72,11.87c-.72,9-7.92,9.72-7.92.72,0-9.72-19.43-20.15-28.78-15.11-5.76,2.88-7.2,2.88-7.2-1.44,0-2.52-2.52-5.76-5.4-6.84-4.32-1.8-4.32-.36.72,10.08,5,10.79,6.48,11.51,10.08,6.47,6.47-8.63,21.95-3.6,24.83,8.28,1.8,6.84,4.31,9,10.43,7.92,6.48-1.08,7.92-3.24,7.92-15.48,0-12.59-1.08-14.39-8.28-14-9.35.36-8.63-6.84,1.08-9,14.39-2.52,22.31,28.79,10.44,40.67-9,9.35-19.08,6.83-27-6.48-9-15.12-17.63-13.68-17.27,2.88,0,9.35.72,10.07,2.87,4,1.8-4,2.52-8.28,1.44-10.08-.72-1.44.36-2.52,2.16-2.52a3.7,3.7,0,0,1,4,3.6c0,6.48,14.4,18,22.31,18a23.35,23.35,0,0,0,14.4-6.12c9-8.27,8.27.72-1.08,10.08C562.74,428.19,544.39,435,526.4,435H510.92l-.36-20.15-.36-20.51,6.12,15.11c5,13.68,6.48,14.76,10.8,9.36,3.59-4.68,4-5.4.36-4.68-2.88.72-7.2-5.4-10.44-14.39-3.24-8.28-6.84-15.12-8.28-15.12-5,0-6.83,11.52-2.87,18.36,6.11,11.87,2.51,26.62-6.84,27.7-10.44,1.44-13.68-7.19-9-25.19,2.16-7.55,2.16-13.67.72-13.67a3.32,3.32,0,0,0-3.24,3.6c0,1.8-3.95,3.6-9,3.6s-9-1.8-9-4.32c0-2.16-2.16-1.44-4.68,2.16-6.83,9.71-20.15,4.32-23-8.64L440,377.82l-11.51,10.79c-11.52,10.8-20.15,12.24-23,4-.72-2.52,1.8-5.76,6.12-6.84,9.35-2.52,9.71-5.39.72-10.79-5.4-3.6-7.92-2.88-14.4,4.68-7.55,8.63-23.39,11.87-27,5.39-1.08-1.8-5.39-2.52-9-1.44-9,2.16-21.95-4.67-21.95-12.23,0-4.32-1.08-4.68-5-1.44-2.88,2.52-10.8,4-17.27,3.24-10.08-1.08-12.24-2.52-13-11.16-1.8-14.75,5.4-21.59,20.87-19.43,12.6,1.44,13,1.44,13.68-11.15,1.08-14.4,2.16-16.2,10.07-17.28,4-.72,4.32.36,1.44,4-6.11,7.56-6.11,51.82,0,55.78,7.2,4.68,10.8,4.32,10.8,0,0-2.16-2.52-3.6-5.4-3.6s-5.4-1.8-5.4-4c0-1.8,1.44-2.88,3.24-1.8s4-2.52,5-8.27c2.52-11.88,14.39-17.64,22.31-11.16,6.84,5.76,6.84,14.39-.36,24.47-12.59,18,4.68,12.95,18.35-5C411.25,349,424.92,348,430,361.62c4.32,11.16,4.32,12.24.36,12.24-1.8,0-4-3.24-5-7.56s-4-6.84-6.48-6.12c-6.83,2.16-8.27,10.08-1.8,10.08,3.24,0,6.84,2.52,8.28,5.76,1.8,4.68,4,3.6,12.24-5.4,5.39-6.12,12.59-11.16,15.47-11.16s6.12-3.23,7.56-6.83c1.07-4,5-8.28,9-9.36,9.36-2.88,11.52-10.79,11.16-43.54-.36-25.19.72-29.51,6.11-31s6.12,1.8,6.84,29.15c.72,41,2.16,52.9,6.48,53.62,29.15,5,29.5,5,35.26-2.88,2.88-4.32,6.48-6.12,7.56-4.32,2.16,4,23.75,9,38.14,9.36,10.8.36,14.4-3.6,14.4-16.92,0-5.39,1.08-9.71,2.87-9.71,2.88,0,18.72,46.42,18.72,55.41,0,3.24,6.47,12.24,14.39,20.16,14.39,14.39,14.75,14.39,23.75,8.63,5-3.6,10.08-10.79,11.16-16.19,1.79-9,2.51-9.72,10.79-5.76,12.24,5.4,31.31-5.4,42.46-24.11,5-8.27,9-11.87,9-8.63,0,10.79,17.63,21.23,32,19.07,24.11-4,28.79-5.4,33.83-10.44,3.24-3.6,8.64-4.32,16.91-2.52,11.52,2.16,11.16,2.52-12.95,10.44a167.1,167.1,0,0,1-48.58,7.92c-18.35,0-25.55,1.43-31.67,7.19l-8.27,6.84,12.23,7.56c9.72,6.11,15.83,7.19,31.67,5.75,10.79-1.08,23.39-2.88,28.06-4.31,8.64-2.52,11.16,3.59,2.52,7.19-2.88,1.08-5.39,4.32-5.39,6.84,0,8.28-8.64,14-13.68,9-3.24-3.24-4.32-3.24-4.32,0,0,2.51,1.8,4.31,3.6,4.31,2.16,0,3.6,4.68,3.6,10.8q0,10.8,5.4,10.79c4,0,5.4-3.95,5.4-13.67,0-15.11,8.27-29.51,16.91-29.51,3.24,0,4.68-2.16,3.6-5-1.44-3.23,1.8-6.47,8.27-9.35,14.76-6.12,37.07-27.71,33.83-32.75-1.8-3.24-3.24-2.52-5.4,2.52-6.12,16.2-40.66,33.11-73.77,36.35-25.55,2.52-41-.36-41-7.56,0-5.4,9.72-10.44,14.39-7.56,6.12,4,59.74-5.75,77.73-14C832.26,363.78,833,363.06,833,349c0-13.31.72-14.75,9-14.75,5,0,10.07,2.51,11.15,5.39,1.44,2.88,4,5.4,6.12,5.4,2.52,0,0-4-4.68-9-13.31-12.95-25.19-9-25.19,9,0,12.6-.72,13.32-12.59,13.68l-12.6.35V267l14.4-6.48c7.92-3.6,15.11-5.76,15.47-5,.72.72,9,14,18.35,29.51,16.2,25.91,17.28,29.86,15.48,45q-2.16,16.73,1.08,9.71c7.19-16.55,3.95-29.86-14.76-58.29C844.14,265.91,834.78,253,833,252.23s-9.71,2.16-17.63,6.48l-14.75,7.2v38.86c0,56.85.72,55.77-33.83,60.09-9.71,1.08-19.43,2.52-21.23,2.88-2.16.36-8.64-18.35-14.39-41.74-5.76-23-12.24-42.1-14-42.1-2.16,0-2.88,4-2.16,9,2.16,10.8,1.8,10.8-10.79,1.8-13-9.71-33.83-12.95-47.5-7.19-5.76,2.52-10.8,5.75-10.8,7.55,0,5.4-10.43,3.6-13.67-2.52-2.16-3.95-5-5-8.28-2.87a39.31,39.31,0,0,1-10.07,3.95,17.87,17.87,0,0,0-8.64,4.32c-5,5,4.32,5.4,16.55.72,7.92-3.24,9-2.16,15.48,15.11,3.6,10.44,11.15,32.39,16.55,49.3l9.72,30.59-7.56,6.12c-9.72,8.63-16.19,8.27-22.31-1.8-9.36-14.4-34.55-101.12-34.19-115.87l.72-14.4,18,1.44c14.39.72,19.07-.36,23-5.39,2.52-3.6,4.67-4.68,4.67-2.16,0,5.76,13.68,14,28.43,16.91,8.28,1.8,11.16,1.44,9.72-1.44-1.44-1.8-.36-6.84,2.16-10.79,4.31-6.84,4.67-6.84,10.07,2.51,3.24,5.4,9,9.72,13,10.08,3.59,0,22.67.36,42.1.72,34.54.72,34.9.72,34.9,9.36,0,10.79-4,13.67-20.15,13.67-9.71,0-12.23,1.44-12.23,6.84,0,6.47,1.8,6.83,18,4.67,17.63-2.15,18-2.15,18,7.2,0,8.64-1.08,9.36-16.55,9.36-13.68,0-16.19,1.08-14.4,5.75,1.08,3.24,2.16,6.84,2.16,8.64s5.76,1.44,13-.72c7.2-1.8,14.75-2.52,17.27-1.8,3.24,1.44,4-4,3.24-18.71-2.16-50-2.16-54,5.4-63.33s7.55-9.72.72-20.51c-5.76-9.72-6.12-11.88-1.44-18.71C806,210.13,797,196.82,783,197.9c-5,.72-14.39-1.8-20.87-5-6.11-3.24-13.67-5-16.55-4.32-2.52,1.08-9.72-.36-15.47-3.6-12.6-6.48-26.63-7.2-26.63-1.08-.36,2.52-2.88.36-5.76-5.4-4.68-8.63-7.2-9.71-23-9.71-9.71,0-18.71,1.44-19.79,3.6-1.08,1.8-4,3.59-5.76,3.59-2.16,0-2.88-1.43-1.8-2.87,1.08-1.8,0-3.24-2.52-3.6s-11.15-1.8-19.43-3.6C613.48,163.35,609.88,163.71,608.44,167.67ZM593,179.54c1.8,1.44,1.8,40.31.36,86L590.81,349l-20.15-2.52c-11.16-1.08-21.23-2.88-22.67-4-1.8-.72-2.88-12.59-2.88-26.27,0-20.87-1.08-24.47-5.4-23-4,1.8-5.4,8.64-5.4,29.15V349L519.2,348l-15.47-1.08-2.52-30.59c-1.08-16.91-2.16-51.09-2.52-76.64l-.36-45.7,10.07-4a74.86,74.86,0,0,1,18.36-4.32c8.27-.72,8.27-.36,7.91,30.59-.72,29.14-.36,31.66,6.12,31.66,6.12,0,7.2-3.59,9-28.06,2.16-32.75,4.67-39.95,14.75-43.91C572.46,172.71,587.93,174.87,593,179.54Zm47.5,36.71c-1.08,24.47-3.6,45.34-4.68,46.78-1.44,1.44-9.72,1.44-18,.36L602,261.23l2.52-41.74c1.44-23,3.24-42.83,4.32-44.62.72-1.44,9-2.52,18-2.52h16.56Zm41-41.74c9.71,2.15,11.87,4.67,15.47,18C702.36,211.57,707,213,707,195.74c0-14.4,1.08-14.76,19.43-7.2,9.71,4.32,12.95,7.2,11.51,11.87-1.08,3.24-2.87,18.36-4.31,33.11-2.88,33.47-5.76,39.58-19.44,39.58-9,0-11.51-2.52-18.71-18-4.68-10.08-9.35-18-10.43-18-1.44,0-3.24,7.2-4.32,16.19-.72,9.36-2.52,17.27-3.24,18-.72,1.08-7.2,0-14.39-2.16l-13-3.23,1.8-42.47C654.5,171.27,655.58,169.47,681.49,174.51Zm83.12,29.86c1.8,7.56,2.52,7.92,6.84,2.52,6.12-7.56,11.87-7.2,21.95.72l7.56,6.12-9,8.63-9,8.28,9.72,8.28c9,7.91,9.36,8.27,3.24,17.63-7.92,11.87-14.4,11.87-23.39-.36l-6.84-9.36-2.52,13c-1.8,9.35-4.32,13.31-8.63,13.31-13.68,0-16.2-5.4-13.68-27.35,5.76-51.45,6.12-52.17,14-51.09C759.57,195.38,763.17,199.33,764.61,204.37ZM486.45,223.44c8.28,29.87,7.92,32.75-4.67,38.15-8.28,4-8.64,5.4-8.64,40.3,0,39.94.36,39.58-28.43,33.83l-11.15-2.52V304.77c0-22.67-1.08-28.07-4.32-25.55-9.72,7.92-31.67,12.59-37.06,8.28-6.84-5.4-12.6,5.39-10.08,19.07,1.44,7.91.72,9.35-3.6,7.55-3.24-1.07-8.64,1.08-12.95,5.4-8.28,8.28-7.2,9.36,3.95,3.6,5.76-3.24,8.64-2.52,15.84,4.32C390,331.76,394,337.51,394,340c0,6.84,7.2,10.08,11.88,5.4,2.16-2.16,7.56-4,12.23-4s7.92-1.08,7.92-2.88c-1.08-6.83.72-7.91,6.12-2.52,3.24,3.24,5,6.84,4,7.92-1.44,1.08-.72,4.68,1.08,7.92,1.79,3.6,1.79,8.27-.36,11.51-2.52,4.32-3.24,4-3.24-.72,0-10.07-9.72-15.11-23.39-12.59-6.84,1.44-12.6,4.68-12.6,7.2,0,2.15-2.52,7.55-5.39,11.51-4.68,6.12-5,5.76-2.88-6.48,2.16-15.47-2.88-24.47-14.4-24.47-8.63,0-20.51,9.72-20.51,16.92,0,2.88-1.44,4.31-3.24,3.24-2.88-2.16,1.08-35.27,5-42.11,1.44-2.16-.36-6.11-4-9-6.47-4.68-6.47-5.4-.36-9,3.24-1.8,6.12-7.56,6.12-12.23,0-10.08,4.32-11.52,10.44-4A11.71,11.71,0,0,0,379.58,285c8.64-2.16,8.64-1.44,1.8-14C375.26,259.07,378.5,254,403,237.12c14-9.72,69.45-39.22,74.13-39.58C478.18,197.54,482.5,209.41,486.45,223.44ZM426.36,303c0,4.32-2.52,10.79-5,14.39-2.88,3.6-4.32,9.36-3.24,13,1.08,4.68-.72,7.19-6.83,8.63-12.24,3.6-13.68,3.24-13.68-2.88,0-2.51-2.88-6.47-6.11-8.63-6.12-3.24-6.12-3.6,0-5.76,3.23-1.44,6.11-4.68,6.11-7.56,0-5.75,4-6.47,9.36-1.79,1.8,1.79,6.12,2.15,9.35.72,5-1.8,3.6-3.24-6.47-6.12-11.52-3.6-13-3.6-15.84,3.6-3.59,8.27-3.59,8.27-5.75-5.76-1.44-8.64-.72-9.36,10.43-8.28,6.84.72,14.4-.36,16.91-1.8C422.4,290.37,426.36,293.61,426.36,303Zm279.24,0c24.47,22.31,19.43,60.09-10.08,78.09-6.47,3.95-12.59,7.19-14,7.19-1.08,0-9.36-19.79-18.71-43.9-19.79-50.74-19.07-53.26,12.59-53.26C690.12,291.09,694.8,292.89,705.6,303Zm-253.33,43.9c6.12,0,6.48,5.4,0,8.64-7.92,4.31-11.52,2.16-11.52-7.56,0-4.68,1.44-6.12,4.68-4C447.59,345.43,450.83,346.87,452.27,346.87ZM915.39,368.1c2.88,3.6,2.88,5.76-.72,8.64-6.12,5.39-14,0-11.16-7.56S910,361.26,915.39,368.1ZM369.86,390.05c19.08,2.16,22.32,1.44,30.59-6.12,5.4-4.31,7.92-5.75,5.76-2.87-5.76,7.91-9,18.71-5.4,16.19,1.8-1.08,4.32-.36,5.76,1.8,2.88,4.68-31.67.36-34.55-4.68-1.44-1.8-2.87-2.16-3.59,0-.72,1.8-9.36,5.76-18.72,9l-17.27,5.75-4.32-9.71c-2.16-5-5.75-10.44-7.91-11.88-6.84-5,2.52-7.91,10.07-3.24,6.84,4.68,7.56,4.32,3.6-.36-7.2-8.27-.72-11.15,7.56-3.23C346.12,384.65,357.27,388.25,369.86,390.05Zm-60.09-6.12c7.92,5.4,13,19.44,10.8,31.67-2.88,14.39-9.36,19.79-9.36,7.56,0-4.68-3.24-11.52-7.2-15.12C291.06,396.53,296.46,374.94,309.77,383.93Zm136,19.44c2.16,1.43,11.52,1.79,21.23,1.08l16.91-1.8v12.59c0,11.88-.71,12.59-9.71,10.44-15.47-3.24-55.06-20.16-55.06-23.39,0-1.44,3.6-5.4,7.92-8.28,7.2-5.4,8.28-5,11.51.72C440.39,398,443.63,401.93,445.79,403.37Zm146.46-6.48c6.11,13.31,1.08,32.74-11.16,43.18-27.35,22.67-76.28,22.67-138.54-1.08-42.46-16.19-65.49-20.87-86-16.91-14.75,2.88-38.14,21.59-38.14,30.58,0,3.24-3.24,7.92-7.2,10.44-6.12,3.6-7.56,3.6-9.72-1.08-1.07-3.24,0-7.92,2.52-10.08,3.6-3.23,4-3.23,2.16,0-1.08,2.16-.72,5,1.08,6.12,1.8,1.44,4.32-2.52,5.76-8.63,2.88-13.32,17.27-30.95,30.23-37.43,24.47-12.59,50-9.35,113.71,13.68,30.58,10.79,40.66,12.95,66.57,12.95,24.11,0,33.1-1.44,42.1-7.2C580,422.8,585.77,412,584,398.69,582.17,386.09,586.85,385,592.25,396.89ZM304,418.84c4,4.68,3.6,7.92-1.08,18.35-7.55,15.83-7.91,37.06-.36,47.5,6.84,9.72,4.32,14.75-3.95,7.92-10.8-9-19.8-31.67-19.8-50C278.82,417.76,292.5,405.16,304,418.84ZM899.19,439c-1.8,2.88.36,3.6,6.84,2.52,5-1.08,9-.72,9,.36-.36,1.08.72,5.76,2.16,10.43,2.15,6.12,1.08,10.44-3.6,15.48-7.92,8.63-13,8.63-20.87,0-5.4-6.12-5.76-8.28-1.8-15.48,2.52-4.67,4.32-10.43,4-12.95a3.17,3.17,0,0,1,2.87-4.32C899.91,435,900.63,436.83,899.19,439Zm37.43,3.6c1.44,6.84-9.72,12.23-14.76,7.2s0-15.48,7.2-14C932.66,436.47,935.9,439.35,936.62,442.59Zm-156.17,42.1c-.36,25.19-5,53.26-10.08,60.09-2.52,3.6-6.48,5-10.44,3.24-6.47-2.16-6.11-15.47,1.44-44.62,2.88-10.79,15.84-36,18.36-36C780.45,467.42,780.81,475,780.45,484.69Zm158.33-11.51c4,10.79,2.16,19.07-5,21.23-7.92,2.51-9,10.07-4,31.66,3.24,14-1.08,38.51-6.48,38.51-1.8,0-4.32-6.12-5.39-13.68-6.12-33.46-9.36-41-16.92-39.22-5.4,1.44-8.27-.36-10.79-7.2-1.8-5-2.88-10.79-2.52-12.59,1.08-2.52,41-23.39,46.42-24.11C935.54,467.42,937.7,469.94,938.78,473.18Zm-643.4,32.74c-2.52,5.76-3.24,5.76-9.36-2.52-5-6.48-5.4-9.71-2.52-11.51C290,487.93,298.26,498,295.38,505.92Zm541.2,33.47c18.35,32.74,21.59,40.66,18,45-7.19,8.63-13.67,6.47-22.31-7.2-4.68-6.84-9.35-12.59-10.79-12.59-1.8,0-2.88,9.71-2.88,21.59,0,21.23,0,21.59-10.44,21.59H797.72l-4.32-36c-2.52-19.43-5.76-35.26-6.84-34.54s-1.8-5-1.8-13c.36-12.95,1.8-15.47,12.6-21.23,6.83-3.24,13.31-5.4,14.75-4.68C813.19,499.08,824.35,517.8,836.58,539.39Zm-118-24.47c-2.52,2.52-4.32,2.88-4.32.72s1.08-5,2.52-6.12c1.08-1.44,3.24-1.8,4.32-.72C721.79,509.88,720.71,512.76,718.55,514.92Zm-6.11,5c5.75,2.16,16.19,19.44,16.19,26.63,0,12.6-31.67,24.47-37.79,14-1.79-2.52-5.39-1.08-10.43,3.6-6.12,5.75-9,6.47-12.24,3.23-2.51-2.52-4.31-6.11-4.31-8.63,0-5.4,12.23-10.08,13.67-5.4,3.24,9.36,7.2,2.88,5.4-8.28C680.05,526.43,695.16,513.48,712.44,520Zm189.63,5.76c-1.08,4.68-.36,6.84,1.8,5.4s3.6,1.8,3.24,7.56c-.36,5.39,1.08,11.87,2.88,14.39,6.12,8.64-.36,7.56-11.52-2.16-11.15-9.35-11.51-10.43-7.19-21.59C896.31,516.36,905.67,513.12,902.07,525.71ZM739.42,535.79a3.61,3.61,0,0,1-3.6,3.6,3.87,3.87,0,0,1-3.59-3.6,3.61,3.61,0,0,1,3.59-3.6A3.4,3.4,0,0,1,739.42,535.79Zm-75.56,13.67c-.36,7.2-14,19.79-19.44,17.63-8.27-3.23-3.23-13,5.76-10.43,5.4,1.08,6.84.36,5.76-3.24-2.16-6.84-13-8.28-19.79-2.88-4,3.6-5,9.36-3.6,22.31,2.52,29.87,27.71,45.7,33.47,21.59,3.23-12.23-3.6-18.71-13.32-12.59-10.07,6.11-14.39,1.8-5-5,17.28-12.59,34.19,6.84,23,26.63-11.51,20.51-37.78,12.23-48.22-15.12-5-13.31-5.39-18-1.79-28.78,5.75-17.63,19.43-25.19,33.1-18C659.54,544.42,663.86,548,663.86,549.46ZM325.6,550.54c0,1.8-2.51,3.24-5.39,3.24-5.4,0-7.2-4.32-3.24-8.28C319.85,542.62,325.6,545.86,325.6,550.54Zm456.28,7.56c2.52,9.35,2.52,14.75-.36,18-2.51,2.52-3.95,4-3.59,3.24.72-.72-1.8-3.6-5.4-6.12-3.24-2.52-4.32-5-1.8-5,2.16,0,3.24-3.24,2.16-7.19-1.8-6.84,1.44-20.51,4-17.64C777.57,544.06,779.73,550.9,781.88,558.1Zm-177,1.8c1.44,5.75,4.68,19.07,7.2,29.86,9.35,36.35,5.4,37.79-18.71,7.2-9.36-11.87-17.64-21.23-18-20.51-.71.72,1.8,11.51,5.76,24.47,8.64,28.43,9,32.74,1.08,31.31-8.27-1.44-28.07-68-21.59-72,7.2-4.68,9-3.6,28.43,20.51,10.07,13,18.71,23.39,19.07,23.39s-2.16-10.8-5.76-24.11c-7.91-28.07-7.91-29.87-3.24-29.87C600.88,550.18,603.76,554.5,604.84,559.9ZM734,557.38c1.08,1.8.36,3.6-1.44,3.6a3.94,3.94,0,0,1-4-3.6c0-2.16.72-3.6,1.44-3.6C731.15,553.78,733,555.22,734,557.38ZM558.42,600.92c9.72,40.66,9.36,39.22,3.6,39.22-3.24,0-7.56-11.87-12.59-33.82-9-39.59-9.36-42.82-3.6-41C548.35,566.37,553.74,582.21,558.42,600.92ZM534,598.76c13.32,52.9,9.36,58.65-12.23,18.35C513.8,602.36,507,590.84,506.6,591.2c-.71.36,2.88,13.68,7.92,29.15,4.68,15.47,7.92,29.51,6.84,31.31-4.32,7.19-12.24,1.8-15.47-10.8C488.61,574.65,489,576.81,498,574.29c5.4-1.44,9.35,3.6,20.51,24.47,7.56,14.75,14.39,26.27,14.75,25.55.36-.36-2.52-12.6-6.11-27.35-8.28-32-7.92-28.79-4-28.79C525,568.17,529.63,581.85,534,598.76Zm177.77-28.07a27.2,27.2,0,0,1-10.8,0c-3.6-1.08-1.44-1.8,4.32-1.8C711.36,568.89,713.87,569.61,711.72,570.69Zm0,7.2a19,19,0,0,1-9,0c-2.52-1.08-.72-1.8,4.32-1.8S713.87,576.81,711.72,577.89Zm121.62,13.67c6.84,8.28,16.2,9,21.59,1.08,1.08-1.8,6.84-.72,12.6,2.52l10.43,5.4H867.17c-6.12,0-12.6,1.44-14.4,2.88-2.16,1.8-10.43,5-18.71,7.91-8.27,2.52-15.83,6.84-16.91,9.72s-4,4-6.12,2.88c-3.6-2.52,7.2-16.55,11.16-14.39,1.08.72,1.44-5,.72-13C821.11,580.41,823.63,579,833.34,591.56Zm-173.08,1.8c0,1.8-2.16,3.6-5,3.6s-6.48-1.8-7.56-3.6c-1.08-2.16,1.08-3.6,5-3.6C657,589.76,660.26,591.2,660.26,593.36Zm-213,35.27c16.19,37.42,16.91,40.3,11.52,40.3-1.8,0-3.6-2.16-3.6-5,0-7.2-4.32-9.35-14-6.84-5.39,1.44-7.55,4.32-6.83,9.72s-.72,7.56-6.12,7.56c-6.12,0-7.2-2.88-8.28-21.59-1.8-28.79,2.52-59.38,7.56-59.38C430,593.36,438.59,609.2,447.23,628.63Zm341.13-26.27c-.72,2.52,2.52,6.48,7.56,8.63,11.51,5.4,10.07,6.48-8.64,8.64-11.87,1.44-14.75.72-12.95-3.24,1.08-2.88,3.24-5,5.4-5,1.79,0,2.15-1.79,1.08-3.59-3.6-5.76,1.07-15.12,5.75-12.6C788.72,596.6,789.44,599.84,788.36,602.36Zm110.47,2.88c3.24,8.27-2.16,12.59-20.15,17.27-12.95,3.24-16.55,5.4-15.47,10.08,5.4,16.91,8.64,37.78,6.84,42.46-4.68,11.51-13.68,2.52-19.08-18.71-6.11-26.27-5-24.83-13.31-20.52-8.64,4.68-16.55,0-14.75-8.63.72-4.68,9.71-9.36,31.66-16.56C889.48,599.48,896.31,598.76,898.83,605.24ZM615.64,625.75c2.88,0,6.47-3.24,7.91-7.56l2.88-7.2,8.64,7.2c5,4.32,7.56,7.56,5.4,7.2-1.8-.36-6.84.36-10.8,1.8-39.58,15.11-42.1,15.47-39.22,7.55,1.44-2.87,4.68-5.39,7.56-5.39,4,0,3.59-2.16-2.16-9.36-11.16-14-9-16.55,3.59-4.68C605.56,621.07,613.12,625.75,615.64,625.75ZM392.89,640.5c8.28,26.63,11.16,32,16.2,30.59,3.6-.72,6.47,0,6.47,1.8,0,4.68-16.55,11.87-22.31,9.71-5.39-2.16-22.67-65.85-19.07-71.25C379.22,603.08,383.54,609.56,392.89,640.5Zm324.94-24.11c0,2.52-6.11,11.52-13.31,19.43-13.68,14.76-14.76,15.12-146.46,54.7-72.69,22.31-133.86,38.86-135.66,37.06-1.44-1.44-3.6-8.63-4-15.47l-1.08-12.23,118.75-37.07c65.49-20.51,132.42-40.66,149.34-44.26s30.94-6.84,31.66-6.84C717.47,611.35,717.83,613.51,717.83,616.39Zm-352.64,6.48c9.35,10.08,9,20.15-.36,30.23l-7.92,8.27,11.52,14c9.71,12.23,10.43,14.75,5.75,18.71-7.55,6.12-13.67.72-34.9-32.39l-17.27-27,10.79-10.07C346.12,612.79,355.11,612.43,365.19,622.87Zm446.92,9c10.08,9,8.28,24.82-3.6,33.46-7.55,5.76-10.07,10.08-9,16.19,2.16,9.72-4.32,14.76-11.52,9-4.68-4-19.79-43.54-19.79-52.18C768.21,626.83,801.32,622.15,812.11,631.87ZM577.49,643.74c-7.19,4.68-11.87,4.68-9,0,1.08-2.16,5-3.6,8.27-3.6C582.17,640.14,582.17,640.86,577.49,643.74Zm179.21.72c6.83,6.84,5.39,9.72-7.2,15.47-11.88,5.4-11.88,5.4-1.44,3.24,6.48-1.08,11.51,0,13.31,2.88,3.24,5.4-2.52,13.67-9.71,13.67-2.88,0-5,1.44-5,3.24,0,2.16,5.76,2.52,12.59,1.44,11.16-1.8,12.6-1.08,12.6,5.76,0,5-3.24,9-9.36,11.16-18.35,7.19-23,4.67-32.38-16.56-11.52-25.91-10.44-33.82,5.75-39.58S751.66,639.42,756.7,644.46Zm81.68-.72c-1.08,1.8-.36,3.6,1.44,3.6,2.16,0,4,2.52,4,5.4s-1.8,5.39-4,5.39c-1.8,0-2.52-2.15-1.08-4.67,1.8-2.52,0-2.16-4,1.08-6.48,5-6.48,5.39,1.08,6.47,10.8,1.8,13.68,15.84,6.48,31.31-6.48,12.95-10.8,15.47-15.12,8.28-1.79-2.88-.71-3.24,3.24-1.8,3.6,1.08,6.12,1.08,6.12-.36,0-4.68-23.39-11.88-24.47-7.92-.72,1.8-2.88,3.6-4.68,3.6-2.16,0-2.52-1.8-1.08-4,1.44-2.52,2.52-7.56,2.88-11.51s2.16-7.92,4.32-8.64,3.6,2.52,3.6,6.84c-.36,6.83,1.8,8.63,11.15,9.35,9,1.08,11.88-.36,13.68-6.48,1.44-4.31.72-9.71-1.08-11.51-4.32-4.32-11.52-.72-11.16,5.4,0,3.24.72,2.88,2.16-.36.72-2.16,3.24-3.6,5-2.16,4.68,2.88.36,8.63-6.48,8.63-4,0-5-2.51-4-9,1.07-5,.71-9-.72-9-5,0,1.08-17.63,6.83-19.07,3.24-1.08,6.12-1.8,6.84-2.16C840.18,640.5,839.46,641.58,838.38,643.74Zm-280,2.88c2.52,1.44-3.6,5-15.11,8.28-18.35,5.39-19.07,5.39-15.11-1.08,2.51-3.6,6.11-5.76,8.63-5,2.52,1.08,5.4.36,6.48-1.44C545.83,643,552.31,642.66,558.42,646.62Zm-48.94,14c2.16,2.16-4.31,5.76-19.07,9.72-12.59,3.6-27.71,8.64-34.18,11.15-9.36,4.32-11.88,4.32-15.12.36-6.11-7.55,2.88-12.59,20.51-11.51,12.6.72,16.92-.72,21.6-7.2C489.33,654.9,502.65,653.82,509.48,660.65ZM376,666.05c0,6.48-.72,7.2-3.24,2.88-2.16-2.88-2.52-6.48-1.8-7.92C374.18,656,376,657.77,376,666.05Zm336.46.72c0,5-3.6,7.92-11.88,10.08-10.44,2.87-11.87,4.67-10.8,12.95,1.44,11.88,11.52,14.75,21.24,5.76,6.83-6.12,7.19-6.12,13.31,0,5.76,5.76,5.76,6.83-4,15.11-13.31,11.16-29.15,11.16-40.3-.36-19.79-19.43-4-54,23.39-51.1C709.56,659.57,712.44,662.09,712.44,666.77Zm-42.11,1.8c-3.59,5.76-5.39,6.12-9.35,2.88-4.32-3.24-4-4.32,1.8-6.48C673.57,660.65,675,661.37,670.33,668.57ZM662.42,693c11.15,33.46,6.47,40.3-18,25.91-14-8.28-14.75-7.92-9.71,5.4,2.88,6.47,2.16,10.07-1.8,13.31-7.56,6.12-11.88.72-21.59-25.55-9.72-27-6.12-32,15.83-21.59,18.71,9,19.07,9,15.12-2.16-4.32-10.79-2.16-15.83,6.83-15.83C653.78,672.53,657.74,678.29,662.42,693Zm-27.35-11.16c0,5-1.08,5-5.4,1.44-2.88-2.52-5.4-5-5.4-5.75s2.52-1.44,5.4-1.44A5.62,5.62,0,0,1,635.07,681.88Zm76.65,5.4c-2.88,2.88-4.68,2.52-6.48-.72-1.8-2.88-1.44-3.6,1.08-1.8,2.52,1.44,4.32.72,4.32-1.8s1.08-3.24,2.51-2.16C714.59,682.24,713.87,685.12,711.72,687.28Zm-10.44,1.44c1.08,2.88.36,5.4-1.44,5.4-2.16,0-3.6-2.52-3.6-5.4s.72-5.4,1.44-5.4S699.84,685.84,701.28,688.72ZM559.5,699.52c-2.52,3.23-5.4,4.67-6.84,3.59-1.07-1.07.36-3.59,3.24-5.39C563.46,692.68,564.54,693.4,559.5,699.52ZM593,698.08c18,8.27,22.31,34.18,7.91,48.22-11.51,11.87-25.19,11.51-36-.36-12.24-13.32-11.88-28.07,1.44-41.39C578.21,693,580.37,692.32,593,698.08Zm200.43,4c0,2.15-2.52,2.87-5.4,1.43-2.88-1.08-5.4-.36-5.4,1.44,0,2.16-2.51,3.6-5.39,3.6-6.48,0-6.84-4.32-1.44-9.71C780.09,694.48,793.4,696.64,793.4,702Zm-247.93,6.47c3.6,2.16,6.84,7.2,6.84,11.16,0,6.83-1.44,7.19-12.24,5.39-10.44-2.15-13.31-1.07-16.55,5.4-3.24,5.76-3.24,10.08-.36,16.2,4.32,9.71,17.27,11.51,20.51,3.23,2.88-7.19,15.47-6.83,18.35.72,3.24,7.92-14.39,22.67-27,22.67-19.07-.36-35.26-21.23-31.66-41.38C507.32,711.39,528.2,699.52,545.47,708.51ZM768.21,710c0,1.08-1.44,2.88-3.6,4-1.8,1.08-3.6.36-3.6-1.44a3.94,3.94,0,0,1,3.6-4C766.77,708.51,768.21,709.23,768.21,710Zm-4.68,26.27c4.32,13.31,7.56,24.47,7.2,24.83-5.76,4-85.64,32.39-105.79,37.78-41.75,10.44-42.83,10.08-53.26-13.31-5-11.16-9-21.59-9-23.39,0-1.44,12.6-5.4,28.07-9,28.79-6.11,104.36-32,110.47-37.78C749.86,707.07,756,712.83,763.53,736.22Zm-71.25-11.16c4.32,4-3.95,5.4-8.63,1.44s-5-3.59-3.6.72c1.8,4-1.8,6.48-13.31,9.36-8.28,2.16-16.2,3.24-16.92,2.16-2.88-2.88,8.28-8.64,13.32-6.84,2.52.72,6.47-1.44,8.63-5.4C675.73,720,686.17,719.67,692.28,725.06Zm-47.86,18.72c-3.95,3.6-5.39-1.44-2.87-10.08l2.51-9,1.08,8.27C645.86,737.66,645.5,742.34,644.42,743.78ZM539.35,732.26c4.32,1.8,4.68,3.6,1.8,9.36-2.88,5.4-4.68,6.12-9,2.52C521.72,735.5,526.76,727.22,539.35,732.26Zm81.33,13c0,2.16-1.08,2.87-2.52,1.8-1.08-1.44-5.76.36-9.72,3.59-7.56,6.48-7.56,6.48-.72-1.8C615.28,740.18,620.68,738.38,620.68,745.22Zm-26.27,18.71c7.19,7.19,2.88,11.87-11.16,12.23-19.07.72-26.63-3.6-19.79-11.15C568.5,759.61,589.37,758.89,594.41,763.93Zm-124.87,9.71c0,2.16-1.44,2.52-3.6,1.44-1.8-1.08-3.6-4-3.6-5.75,0-2.16,1.8-2.52,3.6-1.44A7.33,7.33,0,0,1,469.54,773.64Zm55.06,4.68c9.35-.36,20.51,6.48,20.51,12.24,0,1.44-3.6,4.31-7.92,6.11-9.71,4.32-14.39,22.31-5,18.72,3.24-1.44,5.76-.36,5.76,1.43,0,2.52-3.24,3.24-7.92,2.16-4.31-1.44-10.07-.36-12.59,1.8-3.6,2.88-4.68,2.52-4.68-.72,0-2.52-2.88-6.47-6.12-9-5-3.6-5.39-6.12-2.51-13,2.16-4.67,2.87-11.87,1.44-15.83-3.6-9.36,0-15.11,5-8.64C512.72,776.52,519.2,778.68,524.6,778.32Zm250.09,2.88c.72,6.84-.72,10.08-6.12,11.88-9,2.87-14.75-.36-14.75-8.28,0-5,.72-4.68,4.67,1.08,5.76,7.56,13.32,4.32,13.32-5.76,0-8.28-11.52-9.35-18-1.44-8.28,10.08,6.47,29.15,15.83,19.79,5.76-5.75,10.8-4.32,5.76,1.8-9.36,11.52-28.79,2.16-28.79-14,0-10.8,7.2-16.91,18-15.83C771.45,771.12,774,774,774.69,781.2Zm-6.48,1.08c0,2.88-1.44,5.4-3.24,5.4s-4-2.52-5.4-5.4c-1.08-3.24,0-5.4,3.24-5.4A5.54,5.54,0,0,1,768.21,782.28Zm-29.87,11.51c-1.08,1.08-5.75.72-10.07-.71l-7.92-2.52,8.64-5c7.19-4,9-3.6,9.71.72C739.42,789.48,739.06,792.72,738.34,793.79ZM500.49,812.51c-1.08,1.8.36,5,3.24,7.55s5.39,9.72,5.39,16.56c0,6.47,1.8,13,3.6,14,2.16,1.44,3.6-2.16,3.6-8.28,0-5.75,2.52-13,5.76-15.47,5-4,6.48-4,10.43,1.44,2.16,3.24,5.4,5,6.48,3.6,1.44-1.08,4.68-.36,7.2,1.8,3.6,3.24,6.12,2.52,10.79-2.88,10.08-11.88,26.63-6.84,22.31,6.84-1.44,4.31-.72,7.55,1.44,7.55,4.32,0,5.4,18,1.08,23.39A76.57,76.57,0,0,1,571,879.08c-7.92,6.83-7.92,6.83-16.56-3.24-5.39-6.12-9.35-8.28-10.79-5.76-4,6.12-15.47,4.68-23-3.24-6.48-6.83-6.48-6.83-15.83,1.8l-9.36,8.64-9.36-8.64c-18.35-16.91-19.43-39.22-2.87-52.17C492.21,809.27,504.09,806.39,500.49,812.51Zm145.37.36a3.94,3.94,0,0,1-4,3.6c-1.8,0-2.52-1.8-1.44-3.6,1.08-2.16,2.88-3.6,3.95-3.6C645.14,809.27,645.86,810.71,645.86,812.87Zm-94.63,9.35c-1.08,1.08-4.32,1.44-6.84.36-2.88-1.08-1.8-2.16,2.16-2.16C550.51,820.06,552.66,821.14,551.23,822.22Zm178.84,51.46c-.72.72-4,.36-7.2-1.08-5-1.8-5-3.24-1.08-7.92,4.32-5,5-5,7.2,1.08C730.07,869.36,730.79,873,730.07,873.68Zm15.11,2.52C748.06,896,743,903.55,733,894.55c-9.72-9-11.52-7.56-7.56,5.4,1.8,6.84,1.8,12.95,0,14.75-3.6,3.6-5.76-2.16-9.36-25.91L713.51,873l12.6,7.2,12.59,7.55-1.8-14c-1.44-8.64-.72-14,1.8-14C740.86,859.65,743.74,867.2,745.18,876.2Zm-254,21.23c0,8.64-1.44,16.55-3.24,18-5.39,2.88-6.47-2.16-4.67-20.51C485,873.68,491.13,875.84,491.13,897.43Zm216.63-10.08c10.79,9.72,5.75,33.47-7.2,33.47-13.67,0-19.79-17.27-11.51-32.75C693.72,879.8,699.12,879.44,707.76,887.35ZM508.4,893.83c2.52,5,4.32,11.52,4.32,14.39s1.8,5.4,3.6,5.4c2.16,0,3.6-4.68,3.6-10.43,0-6.12,1.8-11.88,3.6-13,2.16-1.08,3.6,1.08,3.6,5.4,0,11.88-7.56,39.58-11.16,39.58-1.44,0-4.32-6.83-6.12-15.47-3.59-14.75-3.59-14.75-3.95-3.24-.36,6.84-2.16,11.52-4.32,10.8s-3.6-2.52-3.6-4c.36-1.44.36-10.8.36-20.51C498.33,883,501.93,879.8,508.4,893.83Zm159.05,1.8c0,1.8-2.15,3.6-5,3.6-4,0-4.32,2.88-1.8,13.31,4,17.64,4,19.07-.36,19.07-1.8,0-4.68-6.47-5.76-14.39-1.44-8.64-4.32-14.39-7.2-14.39-6.11,0-6.47-6.12-.36-8.28C654.86,891.31,667.45,892,667.45,895.63ZM541.87,907.87c5,13.67,10.44,13.67,10.44,0,0-4.68,1.79-8.64,3.59-8.64,4.32,0,4.32,4.68-.36,24.83-2.88,12.23-2.52,16.55,1.08,19.07,3.6,2.88,3.6,3.24-.36,2.16-5.75-1.8-9-6.48-15.47-22.67l-4.32-10.8L535,923.34c-.72,6.48-2.88,11.87-5,11.87-2.51,0-2.87-5-1.43-13.67,1.07-7.2,2.15-16.19,2.15-19.79C530.71,891.31,537.19,894.91,541.87,907.87Zm76.29-.36c-4.32,20.15-9,31.3-13,31.3-4.68,0-17.27-35.26-13.31-37.78,3.24-1.8,10.79,14,10.79,22.67,0,5.4.72,5.4,3.6.72,1.8-2.88,3.6-9.72,3.6-14.76S611,899.23,612,898.15C616.36,893.83,620,899.23,618.16,907.51Zm63.69,2.87c4,14.76,2.52,22-3.24,15.48-1.8-1.8-4.32-9.36-5.4-16.92C670,890.59,676.81,891.67,681.85,910.38Zm-34.91,16.56c1.8,10.79-4.31,15.11-7.19,5-2.52-10.07-7.56-9.71-12.6,1.44-9.71,22-11.87-1.44-2.16-27l3.6-9,8.28,10.44C641.55,913.62,645.86,922.26,646.94,926.94Zm-61.53-18c7.92,7.2,8.28,18.36.36,27C575,947.81,559.5,941.69,559.5,925.5c0-7.56,11.16-22.67,16.91-22.67C577.49,902.83,581.81,905.35,585.41,908.94Zm151.85,28.43c7.92,7.56,7.2,9.72-4,23.39-6.12,7.2-22.67,17.63-42.47,27-88.52,41.38-177.4,59.73-196.11,41-16.55-16.55-8.28-22.67,36.7-28.43,63.7-7.91,136.74-32,175.61-57.93C725.75,930.18,729.35,929.46,737.26,937.37Zm-105.43,6.12c-3.6,3.24-4,2.88-1.8-2.16,1.08-3.6,3.24-5.4,4.32-4.32S634.35,941,631.83,943.49Zm-90.32-1.08c0,1.8-2.52,3.6-5.76,3.6-2.88,0-4.32-1.8-3.24-3.6a6.84,6.84,0,0,1,5.76-3.6A3.32,3.32,0,0,1,541.51,942.41Zm57.57,1.8c4,4.68,2.52,5.4-9.35,5.4-14-.36-14-.36-5-5.4,5-2.88,9.36-5,9.36-5.4C594.41,938.81,596.57,941.33,599.08,944.21Zm16.2,1.8c1.08,1.8-.36,3.6-3.6,3.6s-4.68-1.8-3.6-3.6c1.08-2.16,2.88-3.6,3.6-3.6S614.2,943.85,615.28,946Zm-72,7.2c15.83,2.51,43.9,3.59,62.25,2.51,18-1.08,33.11-.72,33.11,1.08,0,4-38.15,16.56-70.17,23-22,4.68-51.1,7.2-70.89,6.12-9-.36-14.75-13.67-11.88-28.07,2.16-12.23,2.88-12.59,15.48-10.79C508.4,948.17,527.48,951.05,543.31,953.21ZM739.42,1000c0,23.39-104,68-184.6,79.53-37.42,5-51.09.72-51.09-16.55v-10.8l48.58-6.48c61.53-8.27,117.3-26.62,165.16-54.69C728.27,984.87,739.42,989.55,739.42,1000Zm-50.37,48.58c0,.72-6.48,5-14.4,9s-14.39,6.48-14.39,5.4c0-.72,6.12-4.68,13.67-8.64C689.05,1046,689.05,1046,689.05,1048.56Zm10.79,20.51c0,18-9.72,41-22,52.18-32.75,29.87-107.59,28.43-128.1-2.16-4.68-6.83-8.28-14.39-8.28-16.55,0-2.88,13-6.84,35.26-10.8,38.87-6.83,96.08-24.1,106.52-32.38C695.52,1050,699.84,1052.52,699.84,1069.07Zm-43.54-3.23c-3.24,2.87-44.26,13-45.7,11.51-1.08-.72.36-2.16,3.24-3.24,2.88-.72,13.31-4,23-6.83C652.34,1062.6,661.34,1062.24,656.3,1065.84Z"/><path d="M567.42,187.82c-2.16,2.52-5,14.39-6.12,26.27-4.68,46.42-3.6,44.62-22.31,44.62H522.8l1.44-32.39c1.08-27,.72-32.38-3.6-30.58a26.51,26.51,0,0,1-8.28,1.8c-3.6,0-4.32,81.32-1.08,114.79,1.8,14.75,4,21.95,7.2,21.95,4,0,5-6.48,5-25.19V283.9H555.9v49.3l11.52,2.52c6.12,1.07,11.51,1.79,11.87,1.43.72-.72,1.44-34.9,2.16-76.64,1.44-66.57.72-75.57-4.32-76.65C573.9,183.5,569.58,184.94,567.42,187.82Zm8.27,62.61c-1.07,31.31-1.79,61.18-1.79,66.57.36,16.2-9.72,12.6-11.52-3.95-.72-7.92,0-13.32,1.44-12.6,1.08.72,0-3.24-2.88-9.36-6.48-12.59-19.43-17.27-32.38-11.15-12.24,5.4-12.24,5.76-11.52-10.44.36-12.95,1.08-14,6.12-9.35,3.24,2.52,11.51,5.76,18.71,6.48,17.27,1.79,20.15-2.88,23-38.87,2.88-30.22,3.6-33.82,9.36-33.82C576.77,193.94,577.49,213,575.69,250.43Zm-55.77-31.66c0,3.95-1.08,7.91-2.52,8.63-1.8,1.08-2.88-2.16-2.88-6.83s1.08-8.64,2.88-8.64C518.84,211.93,519.92,215.17,519.92,218.77Z"/><path d="M617.08,192.86c0,5.76-1.08,20.87-2.52,34.18-2.16,23.39-1.8,24.47,5.76,24.47,6.11,0,7.55-2.16,7.55-12.23,0-6.48,1.08-21.95,2.16-34.19,2.52-20.87,2.16-22-5.4-22C618.88,183.14,617.08,185.3,617.08,192.86Z"/><path d="M662.06,219.49c-1.8,28.78-1.44,37.06,2.52,39.58,3.59,2.52,5.39-1.44,8.27-16.91,2.16-10.8,5.76-21.23,8.64-22.67,2.88-1.8,3.24-4,1.08-5.4-1.8-1.08-4.32.36-5.76,3.24-4,10.43-9.36,5.39-9.36-8.64,0-24.83,18.36-20.87,19.44,4,.72,15.47,19.43,49.66,27.34,49.66,4.68,0,6.84-6.12,10.08-31.31,4-30.59,2.88-36.7-6.84-37.06-2.88,0-6.83,18.71-6.83,30.94,0,16.56-9.72,8.64-16.2-13.31-6.47-20.51-13.67-28.43-26.63-28.43C666,183.14,663.5,199.69,662.06,219.49Zm54.33,18.35a71.06,71.06,0,0,0-1.8,10.79c-.36,1.8-1.8,2.88-4,2.88-5,0-4.68-11.87.72-17.27C717.47,228.12,717.83,228.84,716.39,237.84Z"/><path d="M752,225.24c-1.08,11.52-3.24,25.19-4,30.59-1.44,7.56-.72,10.08,3.6,10.08,4,0,5.76-3.24,5.76-10.08,0-5.4,1.79-12.23,3.59-15.11,2.88-4.32,5-3.6,13.68,4.67,5.4,5.4,11.15,9.72,12.59,9.72,5,0,2.16-8.64-5.4-17.27l-8.27-8.64,8.27-6.48c10.44-8.63,3.6-13.31-8.63-5.39-10.44,6.83-15.83,4.67-13.32-5.4,1.08-4,.36-7.2-1.79-7.2S753.46,214.09,752,225.24Zm22,4.68c0,7.92-4,9.36-7.92,3.24-1.8-3.24,1.8-7.92,7.56-10.44C774,222.72,774,226,774,229.92Z"/><path d="M455.15,219.85c-6.84,4.31-25.19,14.75-40.3,23.39-15.48,9-28.07,17.63-28.07,19.43s2.52,7.55,5.75,12.23l5.76,8.64,21.23-10.44,21.23-10.79.72,11.51c.36,6.48.36,21.23.36,32.39l-.36,20.87h21.95l-1.8-34.19-1.79-34.18,11.87-4.32c6.84-2.52,12.23-5.4,12.23-6.48,0-5.75-11.87-36-13.67-35.62C468.82,212.29,462,215.89,455.15,219.85Zm17.63,12.59c3.6,8.28,3.6,10.08-1.8,12.95C457.67,253,451.55,262,453.35,272c4,21.23,4.32,44.26,1.44,46.42-3.6,2.16-4-.36-5-29.86S441.11,254,416.64,267c-11.15,6.11-24.11,5-21.95-1.8.72-1.8,6.12-6.12,11.88-9.36,6.12-3.24,11.51-7.2,11.87-9,.72-1.44,4.32-2.51,7.92-2.51s7.2-1.44,7.92-2.88c1.44-3.6,25.19-18,30.22-18.36C466.66,222.72,470.26,227,472.78,232.44Z"/><path d="M361.59,290.37c0,4-2.16,8.28-4.32,9.36-3.6,1.8-3.6,2.52,0,4.32,2.16,1.08,4.32,4.68,4.32,7.92.36,5.75.36,5.75,4,0,1.8-3.24,5.39-5.4,7.91-4.32,2.88,1.08,4.32-2.16,4.32-9,0-5.76-1.44-9.71-2.88-8.63s-5-.36-7.91-2.52C362.67,283.9,361.59,284.26,361.59,290.37Z"/><path d="M399.73,322c-2.16,5.4,2.16,10.44,8.64,10.8,3.24.36,5.76-2.88,5.76-7.2.36-5.4-1.44-7.92-6.12-7.92C404.41,317.72,400.81,319.52,399.73,322Z"/><path d="M677.17,318.8c-.72,1.8,1.08,9,4.68,16.2,4.68,10.43,6.84,12.59,10.07,9.35,6.48-6.48,5-20.15-2.51-24.47C681.13,315.56,679.33,315.56,677.17,318.8Z"/><path d="M346.47,394.37c2.52,1.08,5.76.72,6.84-.36,1.44-1.08-.72-2.16-4.68-1.8C344.68,392.21,343.6,393.29,346.47,394.37Z"/><path d="M473.5,415.6c0,4,1.08,5,2.16,2.16,1.08-2.52.72-5.76-.36-6.84C474.22,409.48,473.14,411.64,473.5,415.6Z"/><path d="M895.24,455.18c-1.08,2.88-.36,7.2,1.79,9.36,5.76,5.76,15.12.72,15.12-7.92S898.47,446.55,895.24,455.18Zm12.59,1.8a4.84,4.84,0,0,1-9.36,0c-.72-2.16,1.44-4,4.68-4S908.55,454.82,907.83,457Z"/><path d="M924.74,442.23c-1.08,1.8-.36,3.6,1.44,3.6a3.94,3.94,0,0,0,4-3.6c0-2.16-.72-3.6-1.44-3.6C927.62,438.63,925.82,440.07,924.74,442.23Z"/><path d="M770,492.61c-1.08,1.8-.36,3.59,1.44,3.59a3.93,3.93,0,0,0,4-3.59c0-2.16-.72-3.6-1.44-3.6C772.89,489,771.09,490.45,770,492.61Z"/><path d="M766.41,516.36c-1.08,9.35-3.24,19.07-4.32,21.59-1.08,2.88-.36,5,1.8,5,3.24,0,11.52-26.26,11.52-37.42C775.41,493,768.93,500.88,766.41,516.36Z"/><path d="M913.23,484.69c-19.79,9.72-26.63,21.23-10.44,17.27,9.72-2.52,10.8-.72,15.12,24.83,2.87,16.55,8.27,29.15,8.63,19.43,0-3.24-1.8-15.11-4.32-26.63-4-19.79-3.6-21.23,4-27.34,4.32-3.6,7.56-9,6.84-11.88C932.3,476.41,928,477.49,913.23,484.69Z"/><path d="M801.68,509.88c-4.68.72-8.28,3.24-8.28,5.4,0,15.11,12.59,85.28,15.47,85.28,1.8,0,2.52-7.92,1.8-17.63-1.44-14.76-.36-18.71,5.4-24.11,7.2-5.76,7.56-5.76,12.95,2.16,10.8,16.55,17.28,22.67,19.44,19.43,1.08-1.8-5-15.48-14-29.87-8.63-14.39-15.83-27.35-15.83-28.79C818.23,515.64,808.51,508.8,801.68,509.88Zm14.75,22.31c6.84,11.51,6.84,11.87.36,16.55-8.64,6.48-11.16,3.24-13.67-15.83C801,514.56,806,514.2,816.43,532.19Z"/><path d="M807.79,537.23c0,3.24,1.8,5.75,3.6,5.75a3.32,3.32,0,0,0,3.6-3.23,6.84,6.84,0,0,0-3.6-5.76C809.59,532.91,807.79,534.35,807.79,537.23Z"/><path d="M689.41,532.91a23.92,23.92,0,0,0,.71,16.55c3.24,6.84,6.12,7.92,16.56,7.2s13.31-2.88,14-9.36C723.59,528.59,695.52,516,689.41,532.91Zm20.15,0c1.44,2.52,3.23,8.28,4,12.59.72,6.84-.36,7.92-7.19,7.2-11.16-1.8-16.2-11.15-10.44-18.35C701.64,527.51,705.6,527.15,709.56,532.91Z"/><path d="M699.84,539.39a3.86,3.86,0,0,0,3.6,3.59,3.6,3.6,0,0,0,3.6-3.59,3.4,3.4,0,0,0-3.6-3.6A3.61,3.61,0,0,0,699.84,539.39Z"/><path d="M671.05,561a3.87,3.87,0,0,0,3.6,3.6,3.61,3.61,0,0,0,3.6-3.6,3.4,3.4,0,0,0-3.6-3.6A3.61,3.61,0,0,0,671.05,561Z"/><path d="M894.16,539.39a3.92,3.92,0,0,0,4,3.59c1.8,0,2.52-1.79,1.44-3.59-1.08-2.16-2.88-3.6-4-3.6C894.88,535.79,894.16,537.23,894.16,539.39Z"/><path d="M431.4,617.11c1.08,3.24,2.16,11.88,2.16,19.79,0,9.72,1.44,14,5,14,2.88,0,6.12-1.44,7.2-3.24,2.16-3.24-11.15-36.35-14.75-36.35C430,611.35,430.32,613.87,431.4,617.11Z"/><path d="M678.25,624.31c0,1.8,7.2,16.55,9.36,19.07,2.51,2.52,15.83-11.51,15.83-16.55,0-2.88-4.32-4.68-12.6-4.68C684,622.15,678.25,623.23,678.25,624.31Z"/><path d="M595.49,651.3c-88.89,27.35-162.29,50-168,51.81-5,1.8-6.48,9-1.8,9,2.88,0,131.34-38.5,215.91-64.41,20.15-6.48,36-13,34.9-15.11C673.21,627.55,670.69,628.27,595.49,651.3Z"/><path d="M579.29,673.25C527.84,689.08,472.42,706,455.87,711c-16.2,5-29.15,10.08-28.07,10.8,1.08,1.08,7.2,0,13.67-1.8C448,717.87,502.65,701.32,563.1,683c60.45-18,112.27-34.18,115.15-36C690.84,639.78,668.89,645.54,579.29,673.25Z"/><path d="M340.72,625.39c-4,2.16-2.88,5.76,4,16.19,8.27,11.88,9.71,12.6,14.75,7.2,7.92-7.56,7.2-18.35-1.08-23C349.71,621.43,346.83,621.43,340.72,625.39Z"/><path d="M789.8,649.5c0,6.12,7.92,5,10.08-1.44.72-2.52-1.08-4.32-4.32-4.32A5.69,5.69,0,0,0,789.8,649.5Z"/><path d="M577.85,715.71c-2.52,1.44-4,6.48-3.23,11.15,1.79,12.6,15.11,11.88,16.55-.72C592.25,716.07,585.41,710.67,577.85,715.71Z"/><path d="M721.43,733.7c-6.84,4-15.47,7.2-19.07,7.2s-10.08,2.52-14.75,5.4c-4.68,3.23-10.08,5.39-11.52,4.67-6.12-1.44-19.43,4.68-17.63,8.28,1.44,1.8.36,3.24-2.16,3.24-2.16,0-.36,2.88,4,6.48,8.63,6.83,7.19,15.11-2.16,15.11-6.12,0-6.84-7.2-.36-7.2,2.52-.36,1.44-2.52-2.52-5.4-3.6-2.87-5.76-7.19-4.68-10.07,1.44-4.32-.36-4.68-12.23-1.44-10.44,2.52-13.68,5-12.6,9.36,8.28,27.7,6.12,33.46-3.24,9l-5.39-14,1.8,12.23c2.15,15.48,8.27,23,15.83,20.15a94.64,94.64,0,0,1,31.67-7.19c6.11-.36,14-3.6,17.63-7.2,5.4-5,5.75-7.92,2.16-17.27-2.16-6.12-3.6-11.88-2.52-12.6,2.16-2.16,9,15.84,9,23.39,0,5,.72,5,8.64,0,4.32-3.24,14-6.47,20.87-7.91s17.27-6.12,23-10.8c10.08-8.28,10.08-9,5-18.71C743.38,725.78,737.26,725.06,721.43,733.7ZM743,736.94c5.4,10.44,4.32,18.35-2.16,18.35-4.32,0-5-1.08-2.16-4.68,2.88-3.23,2.88-6.11,0-9.71-2.88-4.32-3.24-4.32-1.44.72,2.16,7.19-3.59,9-6.11,1.8-1.8-5.4,1.08-13.32,5-13.32C737.62,730.1,740.86,733.34,743,736.94Zm-10.79,19.79c-.36,6.12-1.44,5.4-5.4-3.24l-5.4-10.79,1.08,9.71c1.08,6.12-.36,10.44-4,11.88-6.83,2.52-6.83,2.16-9.71-10.8l-2.16-10.79,5.76,10.79,5.39,10.8-2.16-10.44c-1.08-6.47,0-11.51,2.88-13.31C724.31,736.58,732.23,746.3,732.23,756.73Zm-32-5.4c-3.6,2.52-4,4.68-.36,11.16,2.16,4.32,3.24,8.63,2.16,10.07-3.24,2.88-5.4-.36-7.92-12.95-1.8-9.72-1.08-11.52,4.32-11.52S704.16,748.81,700.2,751.33Zm-20.15,7.56c1.08,1.8,1.08,9.72-.36,16.91l-2.52,13.68-6.12-14.4c-3.6-7.91-5.39-15.47-4.67-17.27C668.53,754.21,677.53,754.57,680.05,758.89Zm-30.59,23c-.36,6.12-1.44,5.4-5.75-3.24l-5-10.79,1.8,11.87c2.16,14-3.24,12.24-8.64-2.88-1.8-6.11-2.16-10.07-.36-9s4.32,0,5.76-2.16C640.47,760,649.46,772.2,649.46,781.92Z"/><path d="M671.05,762.13c0,1.8,1.8,4.68,3.6,5.76,2.16,1.08,3.6.72,3.6-1.44a7.34,7.34,0,0,0-3.6-5.76C672.85,759.61,671.05,760,671.05,762.13Z"/><path d="M481.06,824.38c-5.76,5.76-5.4,19.07,1.08,31.67,5.75,11.15,15.11,14,22.67,6.47,5.39-5.39,5.75-10.07.72-10.07-1.8,0-3.6,2.52-3.6,5.4a5.4,5.4,0,0,1-10.8,0,5.23,5.23,0,0,1,5-5.4c7.2,0,11.15-20.51,5.76-27A14.19,14.19,0,0,0,481.06,824.38Zm18.71,15.47c-2.52,6.12-10.8,7.2-14,1.8-1.44-2.16-1.44-6.47-.36-9.35,1.44-4,3.6-4.32,9-1.44C498.69,833,500.85,836.62,499.77,839.85Z"/><path d="M489.33,838.06c1.08,1.79,2.88,3.59,4,3.59.72,0,1.44-1.8,1.44-3.59a3.7,3.7,0,0,0-4-3.6C489,834.46,488.25,835.9,489.33,838.06Z"/><path d="M522.44,833.38c-4.32,4-2.88,24.47,1.8,29.14,10.79,10.8,28.07-3.95,22.31-19.07-3.24-8.63-8.64-6.47-8.64,3.6,0,5.76-2.16,9-5.76,9-4.67,0-5.39-2.52-3.59-12.6C530.71,831.94,528.2,827.62,522.44,833.38Z"/><path d="M560.58,836.26c-1.08,3.23.72,8.63,4,12.23,7.92,8.64,7.2,14.75-1.8,14.75-4.32,0-6.84,1.8-6.12,4.32,2.88,8.64,13.32,6.84,19.43-2.88,6.48-9.35,6.48-9.71-3.59-17.63-9.72-7.56-9.72-8.27-3.6-12.23,6.47-3.6,6.47-3.6.36-4A10.32,10.32,0,0,0,560.58,836.26Z"/><path d="M551.59,852.09c-1.44,8.64-.72,10.08,2.87,7.2a8.94,8.94,0,0,1,9.36-1.08c2.52,1.44,1.44-1.08-2.52-6.12a110.23,110.23,0,0,1-7.56-9.72C553.38,841.65,552.31,846.33,551.59,852.09Z"/><path d="M694.08,893.11c-3.24,8.64,0,18.71,5.76,18.71,7.56,0,8.64-14,2.16-19.79C697.32,888.43,695.88,888.79,694.08,893.11Z"/><path d="M627.87,915.06c0,3.24,1.8,5.76,3.6,5.76a3.32,3.32,0,0,0,3.6-3.24,6.84,6.84,0,0,0-3.6-5.76C629.67,910.74,627.87,912.18,627.87,915.06Z"/><path d="M569.22,916.14c-4,3.6-2.88,14.76,1.44,17.63,5.75,3.24,15.47-7.55,13-14.39C581.09,913.62,573.54,911.82,569.22,916.14Z"/><path d="M971.88,210.49c-9.35,6.48-19.07,11.15-21.23,9.72-1.8-1.08-2.52-.36-1.44,1.43,1.44,2.16,0,5-3.24,6.12-12.23,4.68-51.81,33.11-51.81,37.07,0,5.39,10.79,16.19,14.39,14.75,4.68-1.8,57.57-43.18,73.41-57.58,8.27-7.55,16.55-13.67,18.71-13.67,2.52,0,5-2.52,6.48-5.4,3.23-8.63-5-2.88-55.42,37.07-39.22,30.94-45.34,34.9-49.3,29.86-3.6-5,2.88-10.07,44.26-37.06,26.63-17.27,48.22-32.39,48.22-33.47C994.91,195.38,989.15,198.26,971.88,210.49Z"/><path d="M215.85,228.48c5.76,5.76,11.88,10.08,13.32,9.36,1.8-.36,2.87.72,2.87,2.52s7.56,8.27,17.28,14c9.35,6.12,20.51,14.39,24.83,18.35,8.27,7.56,30.22,21.95,33.82,21.95,1.8,0,10.44-16.19,10.44-19.43,0-1.8-41-28.79-43.9-29.15-1.44,0-5.76-2.51-9.36-5.75-3.6-2.88-8.28-5-10.79-4-2.52.72-4.32-.36-4.32-2.52,0-4.32-17.64-12.59-20.51-9.72-1.8,1.8,77,48.94,82,48.94,4.32,0,4,2.52-.36,11.16-3.6,6.47-5,6.11-24.47-8.64C251.12,248.63,204.7,217.69,215.85,228.48Z"/><path d="M827.22,296.49c.36,9.36,1.8,12.6,6.48,12.6,5.4,0,5.76-1.44,2.16-10.08C829,283.54,826.87,282.82,827.22,296.49Z"/><path d="M819.31,296.49c0,5.76.72,7.92,1.8,4.32a27.15,27.15,0,0,0,0-10.79C820,287.86,819.31,290.37,819.31,296.49Z"/><path d="M991.31,290c0,1.79,4,9.71,9,18,4.68,8.63,7.92,15.47,7.2,15.47s-3.6,1.08-6.84,2.16c-4.32,1.8-5.76,0-5.76-6.12a63.53,63.53,0,0,0-5.4-19.43l-5-10.79,1.08,11.51c.72,6.12,2.51,13.31,4,15.11,3.6,5.76-6.47,4.68-15.47-1.8-4.68-3.23-9.36-5-10.07-3.95-2.16,2.16,27.7,20.51,33.1,20.51,2.16,0,6.48-2.16,10.08-4.68,6.47-4.68,6.47-5.76-3.24-21.59C994.55,288.22,991.31,284.26,991.31,290Z"/><path d="M967.92,327.8c5.4,7.56,12.6,13.67,15.84,13.31,4.31,0,4.67-.72.72-2.16-2.52-1.08-9.72-7.19-15.48-13.31l-10.79-11.16Z"/><path d="M811.75,325.64c0,4,1.08,5,2.16,2.16,1.08-2.52.72-5.76-.36-6.84C812.47,319.52,811.39,321.68,811.75,325.64Z"/><path d="M876.16,340a28.47,28.47,0,0,0,3.6,12.24c2.88,4,3.24,2.88,2.16-5C879.76,335,876.16,330.32,876.16,340Z"/><path d="M311.21,357.67c0,7.19,1.8,9,9,9,8.63,0,18.35-11.15,13.67-15.83-1.08-1.08-6.84-2.16-12.59-2.16C313,348.67,311.21,350.11,311.21,357.67Zm18-1.08c0,4-10.43,8.27-12.95,5.39a4.29,4.29,0,0,1,0-5.39C318.77,352.63,329.2,352.63,329.2,356.59Z"/><path d="M368.07,354.79a24,24,0,0,0,.72,13.31c2.15,6.48,2.51,6.48,4.67.72,1.44-3.6,1.44-8.28,0-10.07-1.44-2.52-.36-2.88,2.52-1.08s4,1.08,2.88-1.8C376.34,348.31,369.86,347.59,368.07,354.79Z"/><path d="M881.92,370.26c2.52,10.8-1.08,14-8.28,6.84-2.15-2.16-7.55-3.24-12.23-2.52-7.56,1.08-8.64,2.88-9,19.07-.36,19.07-7.19,45.34-13.31,48.94-1.8,1.44-2.16,4.32-.72,6.84,1.8,3.23,5.4.36,11.51-9.36,7.2-11.88,8.28-18,7.56-37.42-1.08-21.23-.36-23.39,6.12-23.39,6.12,0,7.56,2.87,8.28,15.83,1.79,23.39-7.92,45-25.55,57.93-14.76,10.8-28.79,14-33.11,7.2-1.08-1.8,1.08-5.4,5.4-7.92,4-2.51,7.2-6.47,7.2-9s1.79-4.68,3.59-4.68A3.61,3.61,0,0,0,833,435c0-6.48-6.47-4-9,3.24-1.08,4-7.2,10.44-13.68,14.39l-11.51,7.2,12.23,5c10.08,4.32,14.76,4.32,24.47,1.08,16.19-5.4,33.11-22.31,41-39.94,8.28-18.36,13-60.82,7.2-64.42C881.2,359.82,880.48,362.34,881.92,370.26Z"/><path d="M476.38,367c-5,1.8-11.16,7.56-13.32,12.24-4.67,10.43-13.31,12.23-10.43,2.16.72-3.6.36-9-1.44-11.52-2.16-3.24-3.24-.72-3.24,8.28,0,20.51,6.84,21.23,19.07,1.8,3.6-5.4,9.36-9.72,13-9.72,7.91,0,16.19,9,12.95,14.39s.36,4.32,6.84-2.16c3.24-2.87,5.76-7.55,5.76-9.71,0-2.52-1.44-2.16-3.24.72-2.88,4.68-4.68,4.32-10.08-2.16C486.81,365.22,483.93,364.5,476.38,367Z"/><path d="M991.67,376.38c-2.88,2.88-5.39,10.43-6.11,16.19s-2.52,12.59-4,14.75c-1.44,2.52.36,2.16,3.6-.72,3.23-2.51,6.11-7.91,6.11-11.15,0-10.44,4-18,9-18,9,0,9,6.47-.36,23-10.08,18-6.48,23,5,6.47s12.23-22.67,4.68-30.22C1001,368.82,998.15,368.82,991.67,376.38Z"/><path d="M475.66,380c-4.68,4.31-2.52,11.87,2.88,11.87,2.88,0,5.39-3.24,5.39-7.2C483.93,377.46,480,375.3,475.66,380Z"/><path d="M908.55,397.25a5.4,5.4,0,1,0,5.4-5.4A5.54,5.54,0,0,0,908.55,397.25Z"/><path d="M807.79,406.24a3.87,3.87,0,0,0,3.6,3.6,3.61,3.61,0,0,0,3.6-3.6,3.4,3.4,0,0,0-3.6-3.59A3.61,3.61,0,0,0,807.79,406.24Z"/><path d="M494.73,415.24c0,5,1.8,9,3.6,9,2.16,0,3.6-4,3.6-9s-1.44-9-3.6-9C496.53,406.24,494.73,410.2,494.73,415.24Z"/><path d="M627.15,417c3.24,5.76,7.56,9.36,9.72,7.92,1.8-1.08,1.44.72-1.44,4-5,6.12-3.6,7.56,7.92,6.48,8.27-1.08,7.91,5.4-.72,11.16-6.84,4.67-6.84,5.39-.72,23.75,7.91,23.39,10.43,25.9,16.55,17.63,6.84-9.36,10.79-34.55,6.12-39.22-2.88-2.88-3.24-1.8-2.16,3.23,1.08,4.32-.36,9.72-3.24,12.24a11.73,11.73,0,0,0-3.24,11.15c.72,3.6-.36,6.48-2.52,6.48-3.6,0-5.76-5.76-8.28-21.59-.36-2.88,1.44-9.36,4-13.67,4-7.56,3.6-9.36-2.16-15.12a83.26,83.26,0,0,1-11.51-13.67C627.15,405.52,620.32,405.16,627.15,417Z"/><path d="M818.59,409.12c0,2.52,1.8,4.32,3.6,4.32,2.16,0,3.6,3.24,3.6,7.2s1.79,7.19,3.59,7.19c6.12,0,4-9.35-3.59-16.19C821.83,408,818.59,407,818.59,409.12Z"/><path d="M663.86,422.8c-4.32,11.51,1.08,23,10.79,23,4.32,0,9.36,4.32,12.6,10.79s7.55,10.08,9.71,8.64c2.52-1.8,2.16-4-1.8-6.84-3.24-2.52-5-5.4-3.6-6.48,1.08-1.44-.72-3.23-3.95-4.67-3.24-1.08-4.68-3.6-3.6-5.4,3.6-6.12,4.68-25.19,1.44-23-2.16,1.44-3.6,6.84-3.6,13,0,11.52-6.84,14-14,5.4-3.59-4.32-3.23-7.2,1.44-14.39,4-5.76,4.68-9.36,2.16-9.36C669.25,413.44,665.66,417.76,663.86,422.8Z"/><path d="M612.4,426.4c1.08,2.87-1.44,10.43-5.76,16.19-8.28,11.15-6.48,13.31,4.32,5.4,6.48-5,8.64-27.35,2.52-27.35C611.68,420.64,611,423.16,612.4,426.4Z"/><path d="M744.82,427.83c-6.12,6.84-6.12,10.08,0,32.39,2.16,7.56,0,6.12-11.87-7.2-7.92-9-15.84-15.11-17.28-13.31-1.44,1.44-1.08,2.52,1.08,2.52s8.28,7.56,13.68,16.55c9.71,16.55,14.39,18.35,21.23,7.56,2.88-4.32,2.16-7.56-2.52-12.6-8.64-9.35-7.92-21.95,1.8-25.55,4.32-1.43,6.12-3.95,4-5C752.74,421.72,748.42,423.88,744.82,427.83Z"/><path d="M798.8,426.4c-6.84,6.83-7.2,19.43-.72,19.43,5.76,0,16.91-11.16,16.91-16.92C815,422.08,804.55,420.64,798.8,426.4Z"/><path d="M905.67,424.6a4.85,4.85,0,0,0,9.36,0c.72-2.16-1.44-4-4.68-4S905,422.44,905.67,424.6Z"/><path d="M703.44,452.3c0,5.4-1.8,11.88-4,14-4,4-1.44,19.07,3.24,19.07,1.44,0,3.24-9.72,3.6-21.59.72-11.88.36-21.59-.72-21.59S703.44,446.91,703.44,452.3Z"/><path d="M605.2,468.86c1.08,5-.72,12.59-4,17.27-4.67,6.84-5.75,6.84-5.75,1.8,0-10.08-13-21.59-25.19-22.31-7.92-.72-13.68,1.8-21.59,10.07-5.76,6.12-10.8,14-10.8,17.28,0,3.59-1.44,7.55-3.6,8.63-1.8,1.08-3.6,0-3.6-2.88,0-7.91-12.23-16.91-22.67-16.91-22,0-29.86,9-27.7,30.59.36,5.4-.36,6.12-3.24,3.24-2.52-2.16-4.68-11.16-5-20.15s-1.8-15.84-3.24-15.12-3.24,0-4.68-2.16c-1.08-1.8-5-3.6-8.27-3.24-4.32,0-4,1.08,2.16,3.24,6.47,2.88,7.91,6.12,7.91,19.07,0,16.56,10.44,31.31,22.31,31.31,5.4,0,5.4-1.08.72-10.79-7.55-15.12-.36-30.23,15.12-31.67,14-1.44,21.23,6.84,21.23,24.47,0,11.87.72,12.95,6.11,9.71,3.24-2.15,6.84-9.35,8.28-15.83C543,487.57,557.7,471,570.3,471c12.23,0,16.91,5.39,18.71,21.59,1.44,16.55,9.71,16.55,15.47,0,8.64-24.83,9.36-32.39,4.32-32.39C605.2,460.22,604.12,463.1,605.2,468.86Z"/><path d="M359.79,473.18c-23.39,25.54-18.71,68,9.36,82.76,15.11,7.56,25.9,6.12,36.34-5,14-14.75,15.83-24.83,6.48-34.9-9.72-10.44-7.56-25.19,4.31-29.15,8.64-2.52,17.28,6.12,17.28,17.27,0,8.28,4.32,8.28,11.87,0,6.84-7.2,8.28-22.31,2.52-22.31-1.8,0-3.6,4-3.6,9s-1.44,9-2.88,9c-1.8,0-5.39-3.95-7.91-9-8.64-15.84-28.43-9-33.11,11.51-1.44,5.4.72,10.44,6.48,15.84,10.79,10.43,10.79,11.15-2.52,24.46-14,14.4-24.83,14-40.66-1.07-11.52-10.8-13-14-13-30.23,0-14.4,1.8-20.51,9.36-29.51,5.76-6.84,12.59-10.79,17.27-10.43,12.24.72,15.11-.72,7.56-4C373.1,462.38,368.79,463.46,359.79,473.18Z"/><path d="M972.6,476.77c-4,4-3.6,17.28.72,21.59,2.16,2.16,13,2.52,28.07,1.08,13.31-1.44,40.66-2.88,61.17-3.24,21.59-.71,36-2.15,34.19-3.95s-27.71-2.16-60.82-.36c-31.3,1.8-57.57,2.88-57.57,2.88-.36-.36-1.8-4.32-3.24-9-2.16-7.56-1.8-8.28,5.76-6.48,11.51,2.52,120.55,7.56,118.39,5C1095.31,480.73,975.84,473.18,972.6,476.77Z"/><path d="M563.82,489.73c-2.52,2.52-4.32,8.27-4.32,12.95,0,13.68,12.24,8.64,13.68-5.76C574.26,485.05,571,482.53,563.82,489.73Z"/><path d="M220.89,490.45c-.72.72-14.39,2.52-30.23,3.6s-35.26,2.87-43.18,3.95-20.51,2.88-28.07,3.6-14.75,2.16-15.83,3.24q-5.4,5.4,69.09-3.24c59-6.47,55.06-6.83,53.26,2.52-1.44,8.28-2.16,8.28-48.94,7.2-26.27-.72-54,.36-61.89,2.52l-14.4,3.24,12.6.36c85.28,2.87,111.19,2.15,114.79-4,2.16-3.6,3.95-8.64,3.95-11.52C232,496.92,223.41,487.93,220.89,490.45Z"/><path d="M415.56,499.44c0,1.8,1.8,4.68,3.6,5.76,2.16,1.08,3.6.72,3.6-1.44a7.34,7.34,0,0,0-3.6-5.76C417.36,496.92,415.56,497.28,415.56,499.44Z"/><path d="M500.49,503c-2.52,4,1.08,14.76,5,14.76s6.47-7.92,4.31-13.68C508,499.08,503.37,498.36,500.49,503Z"/><path d="M846.66,508.8c-2.52,2.52,23,77.37,26.26,77.37,1.44,0,.36-8.64-2.87-19.08-2.88-10.07-5.4-21.23-5.76-24.11s-1.8-6.11-2.88-7.19-3.6-6.84-5.76-12.6c-3.6-10.43-3.24-10.79,7.56-10.79,9.71,0,11.15,1.08,11.15,9.71,0,5-1.08,9.36-2.15,9-3.6-1.08-4,3.6-1.44,14.75,2.87,13,32.74,36,38.5,30.23,3.24-3.24,2.52-4.32-3.6-4.32-4.32,0-7.56-1.44-6.84-3.24.36-1.8-5.75-9-13.67-15.83-14-12.23-14-12.59-7.92-19.43,12.24-14,5-26.27-15.47-26.27C854.57,507,847.74,507.72,846.66,508.8Z"/><path d="M860.33,523.19c1.44,2.88,3.6,4.32,5.4,3.24,4-2.16.72-8.63-4-8.63C860,517.8,859.25,520.31,860.33,523.19Z"/><path d="M319.49,574.65c0,7.2,1.8,14.39,4,15.83s2.51,3.6,1.07,5-4.67.72-6.83-1.44c-5.4-5.4-13.68-5.76-13.68-.36,0,2.16,2.52,3.24,5.4,2.16,2.88-1.44,6.12-.72,7.2,1.08,4,6.48,11.87,4,14.39-4.68,2.16-6.47,2.88-6.83,4.32-1.8,2.16,8.28-4.68,20.51-11.16,19.44-2.87-.36-7.91-2.88-11.51-5.76-5.4-4.68-6.12-4.68-4.32,0,2.52,8.27,19.43,13,25.91,7.19,7.92-6.47,7.56-33.1-.36-40.3C320.93,560.26,319.13,560.62,319.49,574.65ZM331,571.77c3.24,5-1.44,18.71-5.76,16.19-1.79-1.43-3.23-4-3.23-5.75,0-2.16,1.79-2.52,3.59-1.44,5,3.24,4.68-2.88-.72-8.28-3.23-3.24-3.23-4.32-.36-4.32A8.47,8.47,0,0,1,331,571.77Z"/><path d="M877.24,575c2.16,8.28,5,14.75,6.48,14.75,4.68,0,1.08-18.35-4.68-24.11C874,560.62,873.64,561.7,877.24,575Z"/><path d="M305.45,573.57c-2.52,10.44-.36,14.75,5.4,10.8,5-2.88,5-19.79.36-19.79C309.41,564.58,306.89,568.53,305.45,573.57Z"/><path d="M743.74,583.29c-10.79,10.79,1.8,29.86,15.83,24.47,11.16-4.32,13-9,8.28-19.44C763.17,578.25,751.3,575.73,743.74,583.29Zm20.87,10.43c0,6.84-9.35,9.72-15.83,4.68-5.4-4-6.12-5.76-2.52-10.08s5.76-4.67,11.52-1.07C761.37,589.4,764.61,592.64,764.61,593.72Z"/><path d="M908.55,701c-7.92,6.47-8.28,7.55-4,16.19,2.88,5,10.8,11.51,18,14.39a304.3,304.3,0,0,1,30.95,16.55c23.75,14.4,55.78,29.87,57.57,28.07,1.44-1.08-62.25-39.94-99.67-61.17-3.6-2.16-3.6-4,1.08-8.28,5-5,7.55-4,28.79,11.88,42.46,32,82.4,59,80.24,54-1.08-2.51-11.52-11.87-23.39-20.87S973.32,732.62,969.36,729c-3.6-3.6-6.83-5.39-6.83-4,0,1.08-2.52.36-5.4-2.15s-4.32-5.76-3.24-7.56-.72-3.24-4-3.24-11.15-4-17.63-9C918.27,692.32,919.7,692.68,908.55,701Z"/><path d="M296.82,721.11c-13.68,11.51-19.07,14-25.91,12.95-1.44,0-1.8,1.8-1.08,4.32,1.08,2.52-10.08,13.67-25.19,25.55s-28.43,23-29.51,24.83c-4.68,7.55,22-11.16,61.54-42.82,37.06-29.87,41.74-32.75,43.54-26.27,1.44,4,1.8,7.91,1.08,8.27-.36.72-22.31,14.76-48.22,31.67s-48.58,33.11-50.38,35.62c-1.8,2.88,1.44,2.16,7.56-2.15,11.15-7.2,72-45,88.88-55.42,11.51-6.84,12.95-14.75,3.6-23C314.09,706.71,314.09,706.71,296.82,721.11Z"/><path d="M380.3,733.7c0,5,.72,6.84,1.8,4.32a19,19,0,0,0,0-9C381,726.86,380.3,728.66,380.3,733.7Z"/><path d="M686.89,806c-.72,1.44-5.4,2.16-10.44,2.16-11.87,0-14.75,3.24-9,10.07,4,5,5,4.68,9-.36,2.88-3.95,7.56-5.39,13.67-4.31,7.92,1.44,13.32-2.16,13.32-9.72C703.44,801.71,688.69,803.51,686.89,806Z"/><path d="M715,806c-10.79,4-10.07,16.19,1.08,23.39s12.24,17.63,1.8,14.75c-8.27-2.16-9.71,2.88-1.8,6.12,16.2,6.12,22-11.87,7.2-21.59-5-3.24-9-7.2-9-9,0-6.11,11.16-7.91,20.16-3.23,10.07,5.39,15.11,2.51,9-5C738,805,724.67,802.43,715,806Z"/><path d="M647.3,833.38c-3.24,11.87,5,27.71,15.48,29.14,4,.72,8.27-1.07,9.35-3.95,1.44-3.6-.36-4.68-6.83-3.24-9.72,1.8-11.88-5.4-2.52-9,5-1.8,4.67-2.52-1.8-5-8.64-3.23-7.2-12.59,2.16-15.11,3.6-1.08,1.8-1.8-3.6-2.16C651.62,823.66,649.1,825.46,647.3,833.38Z"/><path d="M666,830.86c-6.84,2.16-6.48,2.52,1.07,4.68q8.64,2.16,6.48,7.55c-2.52,6.48.36,7.2,7.92,2.52,4-2.52,4-3.6-.36-6.12-2.88-1.79-6.12-5-6.84-7.19C673.57,829.78,670,829.42,666,830.86Z"/><path d="M594.41,837c-2.52,5.39,1.8,37.06,5,34.9,4.32-2.52,4.32-32.74,0-35.62A3.8,3.8,0,0,0,594.41,837Z"/><path d="M612,851.37c2.16,20.15,5,24.83,5,9,0-6.48,1.8-11.52,3.6-11.52,2.51,0,2.51-2.16,0-7.2C613.84,829.06,609.88,833.74,612,851.37Z"/></svg>