<svg width="132" height="26" viewBox="0 0 132 26" fill="none" xmlns="http://www.w3.org/2000/svg">
<g clip-path="url(#clip0_5931_41642)">
<path d="M98.2467 9.20469V25.5968H92.8634V6.63769L98.2467 9.20469Z" fill="#F37368"/>
<path d="M22.0568 22.5529L26.0944 26L43.1043 17.3089L41.3472 13.165L22.0568 22.5529ZM92.8631 11.9915L106.546 5.02398L104.228 1.10014L92.8634 6.63769L92.8631 11.9915Z" fill="#F7A199"/>
<path d="M54.357 7.92102V25.5966H49.198V0.403385L54.357 7.92102ZM22.0568 22.5529L26.0944 26L33.8703 6.93089L31.3656 0.403385L22.0568 22.5529Z" fill="#F37368"/>
<path d="M31.3656 0.403385L36.6739 0.40332L46.506 25.5965H41.0479L31.3656 0.403385ZM55.1419 0.40332L66.4694 17.6022V25.5965L49.198 0.403385L55.1419 0.40332ZM76.1893 0.40332H81.5353V25.5965H76.1893V0.40332ZM84.6382 5.02391V0.40332H103.816L106.546 5.02398L84.6382 5.02391Z" fill="#F04939"/>
<path d="M122.359 16.0254V25.5966H117.051V16.0254" fill="#F7A199"/>
<path d="M126.023 0.403385L117.051 16.0254H122.359L131.668 0.403385H126.023Z" fill="#F04939"/>
<path d="M117.051 16.0254L107.779 0.403385H113.611L119.855 11.1114L117.051 16.0254Z" fill="#F37368"/>
<path d="M2.13121 3.33691C2.13121 6.82069 4.3369 8.91096 8.74827 10.0111L13.4213 11.0746C17.6084 12.028 20.1505 14.375 20.1505 18.1888C20.1879 19.839 19.6272 21.4526 18.6178 22.7727C18.6178 18.9589 16.599 16.9053 11.7764 15.6585L7.17812 14.6317C3.47706 13.8249 0.635835 11.8813 0.635835 7.73748C0.635835 6.16061 1.15922 4.58374 2.13121 3.33691Z" fill="#F04939"/>
<path d="M66.4696 0.403385H71.6287V25.5966L66.4694 25.5965L66.4696 0.403385Z" fill="#F37368"/>
<path d="M15.7389 17.2355C17.7202 18.4824 18.6178 20.2424 18.6178 22.7727C16.9355 24.863 14.0566 26 10.6546 26C4.93475 26 0.859843 23.213 0 18.409H5.49552C6.20582 20.6093 8.07505 21.6361 10.6172 21.6361C13.6453 21.6728 15.7015 20.0592 15.7389 17.2355ZM5.00952 8.50776C3.1403 7.40762 2.05615 5.42736 2.13092 3.30042C3.73845 1.24683 6.5049 0 9.8695 0C15.7389 0 19.1035 3.04372 19.9633 7.2976H14.6547C14.0566 5.61072 12.5986 4.29055 9.94427 4.29055C7.06567 4.32722 5.12167 5.94076 5.00952 8.50776Z" fill="#F37368"/>
</g>
<defs>
<clipPath id="clip0_5931_41642">
<rect width="131.668" height="26" fill="white"/>
</clipPath>
</defs>
</svg>
